<svg width="1045" height="178" viewBox="0 0 1045 178" fill="none" xmlns="http://www.w3.org/2000/svg">
<g filter="url(#filter0_d_15_12)">
<mask id="path-1-outside-1_15_12" maskUnits="userSpaceOnUse" x="-6" y="19" width="1052" height="161" fill="black">
<rect fill="white" x="-6" y="19" width="1052" height="161"/>
<path d="M70.75 142.4C70.75 143.5 67.65 144.4 61.45 145.1C55.35 145.7 49.2 146 43 146C36.9 146 33 145.75 31.3 145.25C29.7 144.65 28.9 143.7 28.9 142.4V77.9H8.05C6.95 77.9 6 76.5 5.2 73.7C4.4 70.9 4 66.75 4 61.25C4 55.65 4.6 50.65 5.8 46.25C7 41.75 8.6 39.5 10.6 39.5H91.75C93.25 39.5 94.25 40.9 94.75 43.7C95.35 46.5 95.65 50.55 95.65 55.85C95.65 61.15 95.1 66.15 94 70.85C92.9 75.55 91.4 77.9 89.5 77.9H70.75V142.4ZM144.455 98.6V142.4C144.455 143.5 141.605 144.4 135.905 145.1C130.305 145.7 124.455 146 118.355 146C112.355 146 108.455 145.75 106.655 145.25C104.855 144.65 103.955 143.7 103.955 142.4V68.45C103.955 66.55 106.705 64.5 112.205 62.3C117.805 60.1 123.855 59 130.355 59C136.955 59 140.655 60.8 141.455 64.4L142.955 71.3H144.005C145.405 67.5 148.755 64.3 154.055 61.7C159.355 59 164.655 57.65 169.955 57.65C175.255 57.65 178.955 58.5 181.055 60.2C183.255 61.9 184.355 64.1 184.355 66.8C184.355 69.4 184.155 72.75 183.755 76.85C183.355 80.95 182.355 85.4 180.755 90.2C179.255 95 177.255 97.4 174.755 97.4C173.755 97.4 170.605 96.65 165.305 95.15C160.005 93.65 155.605 92.9 152.105 92.9C148.705 92.9 146.555 93.4 145.655 94.4C144.855 95.4 144.455 96.8 144.455 98.6ZM220.346 147.35C211.246 147.35 204.096 145.2 198.896 140.9C196.796 139.1 194.946 136.45 193.346 132.95C191.846 129.45 191.096 125.35 191.096 120.65C191.096 115.95 192.196 111.85 194.396 108.35C196.696 104.85 199.446 102.15 202.646 100.25C205.846 98.35 209.596 96.8 213.896 95.6C220.396 93.9 227.546 93.05 235.346 93.05H240.296C240.296 88.95 238.896 86.05 236.096 84.35C234.896 83.65 233.046 83.3 230.546 83.3C228.146 83.3 225.196 83.95 221.696 85.25C218.296 86.55 215.446 87.9 213.146 89.3C210.846 90.6 209.296 91.25 208.496 91.25C206.696 91.25 204.246 88.9 201.146 84.2C198.046 79.4 196.496 75.05 196.496 71.15C196.496 69.85 198.346 68.15 202.046 66.05C205.746 63.95 210.946 62.05 217.646 60.35C224.446 58.55 231.046 57.65 237.446 57.65C243.846 57.65 249.346 58.2 253.946 59.3C258.646 60.3 262.446 61.55 265.346 63.05C268.346 64.55 270.846 66.55 272.846 69.05C274.946 71.55 276.496 73.8 277.496 75.8C278.596 77.8 279.396 80.4 279.896 83.6C280.596 87.3 280.946 91.85 280.946 97.25V142.4C280.946 143.5 278.246 144.4 272.846 145.1C267.546 145.7 262.246 146 256.946 146C251.746 146 248.346 145.85 246.746 145.55C245.246 145.25 244.346 144.9 244.046 144.5C243.746 144.1 243.496 143.4 243.296 142.4L242.096 133.85H240.896C238.396 142.85 231.546 147.35 220.346 147.35ZM240.446 122.45V104.9C237.846 104.9 235.746 106 234.146 108.2C232.546 110.4 231.746 112.9 231.746 115.7C231.746 122.3 233.246 125.6 236.246 125.6C237.546 125.6 238.546 125.3 239.246 124.7C240.046 124 240.446 123.25 240.446 122.45ZM286.955 69.65C286.955 68.65 288.405 67.35 291.305 65.75C294.205 64.05 298.155 62.5 303.155 61.1C308.155 59.7 313.055 59 317.855 59C327.555 59 332.555 61.35 332.855 66.05L336.605 113.75H338.555L341.855 68.45C342.055 65.95 345.505 63.75 352.205 61.85C358.905 59.95 364.805 59 369.905 59C375.005 59 378.805 59.45 381.305 60.35C383.905 61.25 385.555 62.2 386.255 63.2C386.955 64.1 387.305 64.9 387.305 65.6C387.305 66.3 385.155 71.45 380.855 81.05C376.655 90.65 368.205 111.1 355.505 142.4C354.505 144.8 346.355 146 331.055 146C326.255 146 323.105 145.75 321.605 145.25C320.105 144.65 319.105 143.7 318.605 142.4C311.705 125 304.705 108.65 297.605 93.35C290.505 77.95 286.955 70.05 286.955 69.65ZM432.712 112.1C432.712 118.6 435.812 121.85 442.012 121.85C445.612 121.85 450.312 120.65 456.112 118.25C461.912 115.75 464.962 114.5 465.262 114.5C467.162 114.5 469.662 117.35 472.762 123.05C475.862 128.75 477.412 132.95 477.412 135.65C477.412 139.55 473.412 142.5 465.412 144.5C457.412 146.5 449.562 147.5 441.862 147.5C434.262 147.5 427.862 146.9 422.662 145.7C417.562 144.5 413.362 143 410.062 141.2C406.862 139.3 404.012 137 401.512 134.3C399.112 131.6 397.312 129.05 396.112 126.65C394.912 124.15 393.962 121.4 393.262 118.4C392.262 114 391.762 109.45 391.762 104.75C391.762 86.55 396.512 74 406.012 67.1C410.712 63.6 415.962 61.15 421.762 59.75C427.562 58.35 434.412 57.65 442.312 57.65C467.612 57.65 480.262 66.45 480.262 84.05C480.262 102.75 466.062 112.1 437.662 112.1H432.712ZM432.412 90.2V100.1C435.312 100.1 437.662 98.95 439.462 96.65C441.362 94.35 442.312 91.55 442.312 88.25C442.312 82.25 440.762 79.25 437.662 79.25C434.162 79.25 432.412 82.9 432.412 90.2ZM529.709 35.9V142.4C529.709 143.5 526.859 144.4 521.159 145.1C515.459 145.7 509.559 146 503.459 146C497.459 146 493.559 145.75 491.759 145.25C490.059 144.65 489.209 143.7 489.209 142.4V38.6C489.209 36.4 492.009 34.25 497.609 32.15C503.309 30.05 509.409 29 515.909 29C525.109 29 529.709 31.3 529.709 35.9ZM586.386 146H553.536C548.536 146 545.186 145.65 543.486 144.95C541.786 144.25 540.936 143.15 540.936 141.65V45.2C540.936 40.4 555.386 38 584.286 38C600.886 38 612.336 39.6 618.636 42.8C625.036 46.1 629.136 50.3 630.936 55.4C631.936 58.4 632.436 61.9 632.436 65.9C632.436 73.7 631.086 79.55 628.386 83.45C625.786 87.35 622.936 89.55 619.836 90.05C624.536 91.05 628.436 93.35 631.536 96.95C634.636 100.55 636.186 106.65 636.186 115.25C636.186 125.25 633.136 132.65 627.036 137.45C621.736 141.65 613.636 144.3 602.736 145.4C598.136 145.8 592.686 146 586.386 146ZM586.536 80.6C591.636 80.6 594.186 77.2 594.186 70.4C594.186 67 593.486 64.5 592.086 62.9C590.786 61.2 589.286 60.35 587.586 60.35H582.786V80.6H586.536ZM582.786 123.65H586.536C591.636 123.65 594.186 120.25 594.186 113.45C594.186 110.05 593.486 107.55 592.086 105.95C590.786 104.25 589.286 103.4 587.586 103.4H582.786V123.65ZM676.097 147.35C664.897 147.35 657.047 144.45 652.547 138.65C648.147 132.85 645.947 122.75 645.947 108.35V67.55C645.947 65.55 648.897 63.65 654.797 61.85C660.697 59.95 666.897 59 673.397 59C682.097 59 686.447 61.25 686.447 65.75V103.85C686.447 111.45 686.747 117 687.347 120.5C687.947 123.9 689.447 125.6 691.847 125.6C695.047 125.6 696.647 124.25 696.647 121.55V67.55C696.647 65.45 699.747 63.5 705.947 61.7C712.147 59.9 718.897 59 726.197 59C733.497 59 737.147 60.95 737.147 64.85V142.1C737.147 143.5 733.997 144.5 727.697 145.1C721.397 145.7 715.197 146 709.097 146C702.997 146 699.897 145.2 699.797 143.6L698.297 133.85H697.097C696.197 137.45 694.397 140.4 691.697 142.7C690.297 143.9 688.197 145 685.397 146C682.697 146.9 679.597 147.35 676.097 147.35ZM775.807 147.35C772.107 147.35 768.657 146.8 765.457 145.7C762.257 144.6 759.607 143.25 757.507 141.65C755.507 140.05 753.757 137.9 752.257 135.2C750.757 132.5 749.607 129.95 748.807 127.55C748.007 125.05 747.407 122 747.007 118.4C746.407 113.1 746.107 107.05 746.107 100.25C746.107 86.35 748.657 75.8 753.757 68.6C758.857 61.3 765.857 57.65 774.757 57.65C783.857 57.65 790.457 59.8 794.557 64.1C795.457 65.1 796.157 66.3 796.657 67.7H797.857L796.057 57.35V38.6C796.057 36.4 798.857 34.25 804.457 32.15C810.057 30.05 816.107 29 822.607 29C829.407 29 833.757 30.3 835.657 32.9C836.357 33.9 836.707 34.9 836.707 35.9V142.4C836.707 143.5 833.907 144.4 828.307 145.1C822.807 145.7 817.457 146 812.257 146C807.157 146 803.857 145.85 802.357 145.55C800.957 145.15 800.057 144.75 799.657 144.35C799.357 143.95 799.157 143.3 799.057 142.4L797.857 133.85H796.657C795.757 137.35 793.957 140.3 791.257 142.7C787.857 145.8 782.707 147.35 775.807 147.35ZM792.607 125.45C794.207 125.45 795.407 124.45 796.207 122.45V82.4C796.207 81.4 795.657 80.65 794.557 80.15C793.557 79.55 792.657 79.25 791.857 79.25C788.457 79.25 786.757 87.05 786.757 102.65C786.757 110.95 787.207 116.85 788.107 120.35C789.107 123.75 790.607 125.45 792.607 125.45ZM875.417 147.35C871.717 147.35 868.267 146.8 865.067 145.7C861.867 144.6 859.217 143.25 857.117 141.65C855.117 140.05 853.367 137.9 851.867 135.2C850.367 132.5 849.217 129.95 848.417 127.55C847.617 125.05 847.017 122 846.617 118.4C846.017 113.1 845.717 107.05 845.717 100.25C845.717 86.35 848.267 75.8 853.367 68.6C858.467 61.3 865.467 57.65 874.367 57.65C883.467 57.65 890.067 59.8 894.167 64.1C895.067 65.1 895.767 66.3 896.267 67.7H897.467L895.667 57.35V38.6C895.667 36.4 898.467 34.25 904.067 32.15C909.667 30.05 915.717 29 922.217 29C929.017 29 933.367 30.3 935.267 32.9C935.967 33.9 936.317 34.9 936.317 35.9V142.4C936.317 143.5 933.517 144.4 927.917 145.1C922.417 145.7 917.067 146 911.867 146C906.767 146 903.467 145.85 901.967 145.55C900.567 145.15 899.667 144.75 899.267 144.35C898.967 143.95 898.767 143.3 898.667 142.4L897.467 133.85H896.267C895.367 137.35 893.567 140.3 890.867 142.7C887.467 145.8 882.317 147.35 875.417 147.35ZM892.217 125.45C893.817 125.45 895.017 124.45 895.817 122.45V82.4C895.817 81.4 895.267 80.65 894.167 80.15C893.167 79.55 892.267 79.25 891.467 79.25C888.067 79.25 886.367 87.05 886.367 102.65C886.367 110.95 886.817 116.85 887.717 120.35C888.717 123.75 890.217 125.45 892.217 125.45ZM997.376 136.25V127.4H996.176C995.676 127.9 994.926 128.55 993.926 129.35C992.926 130.15 990.576 131.2 986.876 132.5C983.176 133.8 979.026 134.45 974.426 134.45C969.926 134.45 965.926 133.75 962.426 132.35C959.026 130.85 956.326 128.9 954.326 126.5C952.326 124 950.776 120.7 949.676 116.6C947.776 110.1 946.826 100.9 946.826 89V68.3C946.826 66.2 949.776 64.15 955.676 62.15C961.576 60.05 967.776 59 974.276 59C982.976 59 987.326 61.25 987.326 65.75V84.65C987.326 104.65 988.926 114.65 992.126 114.65C994.026 114.65 994.976 113.3 994.976 110.6V68.3C994.976 66.2 998.126 64.15 1004.43 62.15C1010.73 60.05 1017.48 59 1024.68 59C1031.88 59 1035.48 60.95 1035.48 64.85V135.8C1035.48 158.1 1020.38 169.25 990.176 169.25C974.276 169.25 963.476 167.7 957.776 164.6C955.276 163.2 954.026 161.75 954.026 160.25C954.026 157.85 955.026 153.8 957.026 148.1C959.026 142.5 960.876 139.7 962.576 139.7C962.976 139.7 964.376 140 966.776 140.6C974.176 142.6 980.326 143.6 985.226 143.6C990.226 143.6 993.476 143.05 994.976 141.95C996.576 140.85 997.376 138.95 997.376 136.25Z"/>
</mask>
<path d="M70.75 142.4C70.75 143.5 67.65 144.4 61.45 145.1C55.35 145.7 49.2 146 43 146C36.9 146 33 145.75 31.3 145.25C29.7 144.65 28.9 143.7 28.9 142.4V77.9H8.05C6.95 77.9 6 76.5 5.2 73.7C4.4 70.9 4 66.75 4 61.25C4 55.65 4.6 50.65 5.8 46.25C7 41.75 8.6 39.5 10.6 39.5H91.75C93.25 39.5 94.25 40.9 94.75 43.7C95.35 46.5 95.65 50.55 95.65 55.85C95.65 61.15 95.1 66.15 94 70.85C92.9 75.55 91.4 77.9 89.5 77.9H70.75V142.4ZM144.455 98.6V142.4C144.455 143.5 141.605 144.4 135.905 145.1C130.305 145.7 124.455 146 118.355 146C112.355 146 108.455 145.75 106.655 145.25C104.855 144.65 103.955 143.7 103.955 142.4V68.45C103.955 66.55 106.705 64.5 112.205 62.3C117.805 60.1 123.855 59 130.355 59C136.955 59 140.655 60.8 141.455 64.4L142.955 71.3H144.005C145.405 67.5 148.755 64.3 154.055 61.7C159.355 59 164.655 57.65 169.955 57.65C175.255 57.65 178.955 58.5 181.055 60.2C183.255 61.9 184.355 64.1 184.355 66.8C184.355 69.4 184.155 72.75 183.755 76.85C183.355 80.95 182.355 85.4 180.755 90.2C179.255 95 177.255 97.4 174.755 97.4C173.755 97.4 170.605 96.65 165.305 95.15C160.005 93.65 155.605 92.9 152.105 92.9C148.705 92.9 146.555 93.4 145.655 94.4C144.855 95.4 144.455 96.8 144.455 98.6ZM220.346 147.35C211.246 147.35 204.096 145.2 198.896 140.9C196.796 139.1 194.946 136.45 193.346 132.95C191.846 129.45 191.096 125.35 191.096 120.65C191.096 115.95 192.196 111.85 194.396 108.35C196.696 104.85 199.446 102.15 202.646 100.25C205.846 98.35 209.596 96.8 213.896 95.6C220.396 93.9 227.546 93.05 235.346 93.05H240.296C240.296 88.95 238.896 86.05 236.096 84.35C234.896 83.65 233.046 83.3 230.546 83.3C228.146 83.3 225.196 83.95 221.696 85.25C218.296 86.55 215.446 87.9 213.146 89.3C210.846 90.6 209.296 91.25 208.496 91.25C206.696 91.25 204.246 88.9 201.146 84.2C198.046 79.4 196.496 75.05 196.496 71.15C196.496 69.85 198.346 68.15 202.046 66.05C205.746 63.95 210.946 62.05 217.646 60.35C224.446 58.55 231.046 57.65 237.446 57.65C243.846 57.65 249.346 58.2 253.946 59.3C258.646 60.3 262.446 61.55 265.346 63.05C268.346 64.55 270.846 66.55 272.846 69.05C274.946 71.55 276.496 73.8 277.496 75.8C278.596 77.8 279.396 80.4 279.896 83.6C280.596 87.3 280.946 91.85 280.946 97.25V142.4C280.946 143.5 278.246 144.4 272.846 145.1C267.546 145.7 262.246 146 256.946 146C251.746 146 248.346 145.85 246.746 145.55C245.246 145.25 244.346 144.9 244.046 144.5C243.746 144.1 243.496 143.4 243.296 142.4L242.096 133.85H240.896C238.396 142.85 231.546 147.35 220.346 147.35ZM240.446 122.45V104.9C237.846 104.9 235.746 106 234.146 108.2C232.546 110.4 231.746 112.9 231.746 115.7C231.746 122.3 233.246 125.6 236.246 125.6C237.546 125.6 238.546 125.3 239.246 124.7C240.046 124 240.446 123.25 240.446 122.45ZM286.955 69.65C286.955 68.65 288.405 67.35 291.305 65.75C294.205 64.05 298.155 62.5 303.155 61.1C308.155 59.7 313.055 59 317.855 59C327.555 59 332.555 61.35 332.855 66.05L336.605 113.75H338.555L341.855 68.45C342.055 65.95 345.505 63.75 352.205 61.85C358.905 59.95 364.805 59 369.905 59C375.005 59 378.805 59.45 381.305 60.35C383.905 61.25 385.555 62.2 386.255 63.2C386.955 64.1 387.305 64.9 387.305 65.6C387.305 66.3 385.155 71.45 380.855 81.05C376.655 90.65 368.205 111.1 355.505 142.4C354.505 144.8 346.355 146 331.055 146C326.255 146 323.105 145.75 321.605 145.25C320.105 144.65 319.105 143.7 318.605 142.4C311.705 125 304.705 108.65 297.605 93.35C290.505 77.95 286.955 70.05 286.955 69.65ZM432.712 112.1C432.712 118.6 435.812 121.85 442.012 121.85C445.612 121.85 450.312 120.65 456.112 118.25C461.912 115.75 464.962 114.5 465.262 114.5C467.162 114.5 469.662 117.35 472.762 123.05C475.862 128.75 477.412 132.95 477.412 135.65C477.412 139.55 473.412 142.5 465.412 144.5C457.412 146.5 449.562 147.5 441.862 147.5C434.262 147.5 427.862 146.9 422.662 145.7C417.562 144.5 413.362 143 410.062 141.2C406.862 139.3 404.012 137 401.512 134.3C399.112 131.6 397.312 129.05 396.112 126.65C394.912 124.15 393.962 121.4 393.262 118.4C392.262 114 391.762 109.45 391.762 104.75C391.762 86.55 396.512 74 406.012 67.1C410.712 63.6 415.962 61.15 421.762 59.75C427.562 58.35 434.412 57.65 442.312 57.65C467.612 57.65 480.262 66.45 480.262 84.05C480.262 102.75 466.062 112.1 437.662 112.1H432.712ZM432.412 90.2V100.1C435.312 100.1 437.662 98.95 439.462 96.65C441.362 94.35 442.312 91.55 442.312 88.25C442.312 82.25 440.762 79.25 437.662 79.25C434.162 79.25 432.412 82.9 432.412 90.2ZM529.709 35.9V142.4C529.709 143.5 526.859 144.4 521.159 145.1C515.459 145.7 509.559 146 503.459 146C497.459 146 493.559 145.75 491.759 145.25C490.059 144.65 489.209 143.7 489.209 142.4V38.6C489.209 36.4 492.009 34.25 497.609 32.15C503.309 30.05 509.409 29 515.909 29C525.109 29 529.709 31.3 529.709 35.9ZM586.386 146H553.536C548.536 146 545.186 145.65 543.486 144.95C541.786 144.25 540.936 143.15 540.936 141.65V45.2C540.936 40.4 555.386 38 584.286 38C600.886 38 612.336 39.6 618.636 42.8C625.036 46.1 629.136 50.3 630.936 55.4C631.936 58.4 632.436 61.9 632.436 65.9C632.436 73.7 631.086 79.55 628.386 83.45C625.786 87.35 622.936 89.55 619.836 90.05C624.536 91.05 628.436 93.35 631.536 96.95C634.636 100.55 636.186 106.65 636.186 115.25C636.186 125.25 633.136 132.65 627.036 137.45C621.736 141.65 613.636 144.3 602.736 145.4C598.136 145.8 592.686 146 586.386 146ZM586.536 80.6C591.636 80.6 594.186 77.2 594.186 70.4C594.186 67 593.486 64.5 592.086 62.9C590.786 61.2 589.286 60.35 587.586 60.35H582.786V80.6H586.536ZM582.786 123.65H586.536C591.636 123.65 594.186 120.25 594.186 113.45C594.186 110.05 593.486 107.55 592.086 105.95C590.786 104.25 589.286 103.4 587.586 103.4H582.786V123.65ZM676.097 147.35C664.897 147.35 657.047 144.45 652.547 138.65C648.147 132.85 645.947 122.75 645.947 108.35V67.55C645.947 65.55 648.897 63.65 654.797 61.85C660.697 59.95 666.897 59 673.397 59C682.097 59 686.447 61.25 686.447 65.75V103.85C686.447 111.45 686.747 117 687.347 120.5C687.947 123.9 689.447 125.6 691.847 125.6C695.047 125.6 696.647 124.25 696.647 121.55V67.55C696.647 65.45 699.747 63.5 705.947 61.7C712.147 59.9 718.897 59 726.197 59C733.497 59 737.147 60.95 737.147 64.85V142.1C737.147 143.5 733.997 144.5 727.697 145.1C721.397 145.7 715.197 146 709.097 146C702.997 146 699.897 145.2 699.797 143.6L698.297 133.85H697.097C696.197 137.45 694.397 140.4 691.697 142.7C690.297 143.9 688.197 145 685.397 146C682.697 146.9 679.597 147.35 676.097 147.35ZM775.807 147.35C772.107 147.35 768.657 146.8 765.457 145.7C762.257 144.6 759.607 143.25 757.507 141.65C755.507 140.05 753.757 137.9 752.257 135.2C750.757 132.5 749.607 129.95 748.807 127.55C748.007 125.05 747.407 122 747.007 118.4C746.407 113.1 746.107 107.05 746.107 100.25C746.107 86.35 748.657 75.8 753.757 68.6C758.857 61.3 765.857 57.65 774.757 57.65C783.857 57.65 790.457 59.8 794.557 64.1C795.457 65.1 796.157 66.3 796.657 67.7H797.857L796.057 57.35V38.6C796.057 36.4 798.857 34.25 804.457 32.15C810.057 30.05 816.107 29 822.607 29C829.407 29 833.757 30.3 835.657 32.9C836.357 33.9 836.707 34.9 836.707 35.9V142.4C836.707 143.5 833.907 144.4 828.307 145.1C822.807 145.7 817.457 146 812.257 146C807.157 146 803.857 145.85 802.357 145.55C800.957 145.15 800.057 144.75 799.657 144.35C799.357 143.95 799.157 143.3 799.057 142.4L797.857 133.85H796.657C795.757 137.35 793.957 140.3 791.257 142.7C787.857 145.8 782.707 147.35 775.807 147.35ZM792.607 125.45C794.207 125.45 795.407 124.45 796.207 122.45V82.4C796.207 81.4 795.657 80.65 794.557 80.15C793.557 79.55 792.657 79.25 791.857 79.25C788.457 79.25 786.757 87.05 786.757 102.65C786.757 110.95 787.207 116.85 788.107 120.35C789.107 123.75 790.607 125.45 792.607 125.45ZM875.417 147.35C871.717 147.35 868.267 146.8 865.067 145.7C861.867 144.6 859.217 143.25 857.117 141.65C855.117 140.05 853.367 137.9 851.867 135.2C850.367 132.5 849.217 129.95 848.417 127.55C847.617 125.05 847.017 122 846.617 118.4C846.017 113.1 845.717 107.05 845.717 100.25C845.717 86.35 848.267 75.8 853.367 68.6C858.467 61.3 865.467 57.65 874.367 57.65C883.467 57.65 890.067 59.8 894.167 64.1C895.067 65.1 895.767 66.3 896.267 67.7H897.467L895.667 57.35V38.6C895.667 36.4 898.467 34.25 904.067 32.15C909.667 30.05 915.717 29 922.217 29C929.017 29 933.367 30.3 935.267 32.9C935.967 33.9 936.317 34.9 936.317 35.9V142.4C936.317 143.5 933.517 144.4 927.917 145.1C922.417 145.7 917.067 146 911.867 146C906.767 146 903.467 145.85 901.967 145.55C900.567 145.15 899.667 144.75 899.267 144.35C898.967 143.95 898.767 143.3 898.667 142.4L897.467 133.85H896.267C895.367 137.35 893.567 140.3 890.867 142.7C887.467 145.8 882.317 147.35 875.417 147.35ZM892.217 125.45C893.817 125.45 895.017 124.45 895.817 122.45V82.4C895.817 81.4 895.267 80.65 894.167 80.15C893.167 79.55 892.267 79.25 891.467 79.25C888.067 79.25 886.367 87.05 886.367 102.65C886.367 110.95 886.817 116.85 887.717 120.35C888.717 123.75 890.217 125.45 892.217 125.45ZM997.376 136.25V127.4H996.176C995.676 127.9 994.926 128.55 993.926 129.35C992.926 130.15 990.576 131.2 986.876 132.5C983.176 133.8 979.026 134.45 974.426 134.45C969.926 134.45 965.926 133.75 962.426 132.35C959.026 130.85 956.326 128.9 954.326 126.5C952.326 124 950.776 120.7 949.676 116.6C947.776 110.1 946.826 100.9 946.826 89V68.3C946.826 66.2 949.776 64.15 955.676 62.15C961.576 60.05 967.776 59 974.276 59C982.976 59 987.326 61.25 987.326 65.75V84.65C987.326 104.65 988.926 114.65 992.126 114.65C994.026 114.65 994.976 113.3 994.976 110.6V68.3C994.976 66.2 998.126 64.15 1004.43 62.15C1010.73 60.05 1017.48 59 1024.68 59C1031.88 59 1035.48 60.95 1035.48 64.85V135.8C1035.48 158.1 1020.38 169.25 990.176 169.25C974.276 169.25 963.476 167.7 957.776 164.6C955.276 163.2 954.026 161.75 954.026 160.25C954.026 157.85 955.026 153.8 957.026 148.1C959.026 142.5 960.876 139.7 962.576 139.7C962.976 139.7 964.376 140 966.776 140.6C974.176 142.6 980.326 143.6 985.226 143.6C990.226 143.6 993.476 143.05 994.976 141.95C996.576 140.85 997.376 138.95 997.376 136.25Z" fill="#1321A0"/>
<path d="M61.45 145.1L62.4289 155.052L62.5005 155.045L62.5719 155.037L61.45 145.1ZM31.3 145.25L27.7888 154.613L28.1294 154.741L28.4783 154.844L31.3 145.25ZM28.9 77.9H38.9V67.9H28.9V77.9ZM5.2 73.7L-4.41524 76.4472L-4.41524 76.4472L5.2 73.7ZM5.8 46.25L15.4476 48.8812L15.4551 48.8539L15.4623 48.8266L5.8 46.25ZM94.75 43.7L84.9057 45.4579L84.936 45.6272L84.972 45.7953L94.75 43.7ZM94 70.85L84.2631 68.5711L84.2631 68.5712L94 70.85ZM70.75 77.9V67.9H60.75V77.9H70.75ZM60.75 142.4C60.75 140.023 61.6302 138.123 62.559 136.865C63.4112 135.71 64.312 135.066 64.7475 134.785C65.5646 134.257 66.0666 134.172 65.6369 134.297C64.9249 134.503 63.2821 134.83 60.3281 135.163L62.5719 155.037C65.8179 154.67 68.8251 154.197 71.2131 153.503C72.3334 153.178 73.9979 152.618 75.59 151.59C76.8711 150.764 80.75 147.884 80.75 142.4H60.75ZM60.4711 135.148C54.7002 135.716 48.8769 136 43 136V156C49.5231 156 55.9999 155.684 62.4289 155.052L60.4711 135.148ZM43 136C40.0596 136 37.7936 135.939 36.1397 135.833C34.2629 135.713 33.8231 135.569 34.1217 135.656L28.4783 154.844C30.4769 155.431 32.8371 155.662 34.8603 155.792C37.1064 155.936 39.8404 156 43 156V136ZM34.8112 135.887C35.0421 135.973 36.1051 136.406 37.1491 137.646C38.3427 139.064 38.9 140.813 38.9 142.4H18.9C18.9 145.287 19.8573 148.161 21.8509 150.529C23.6949 152.719 25.9579 153.927 27.7888 154.613L34.8112 135.887ZM38.9 142.4V77.9H18.9V142.4H38.9ZM28.9 67.9H8.05V87.9H28.9V67.9ZM8.05 67.9C12.3212 67.9 14.4471 70.7336 14.7873 71.235C15.1877 71.8251 15.1018 71.9558 14.8152 70.9528L-4.41524 76.4472C-3.90183 78.2441 -3.11272 80.4749 -1.76226 82.465C-0.472061 84.3664 2.67884 87.9 8.05 87.9V67.9ZM14.8152 70.9528C14.4052 69.5178 14 66.4895 14 61.25H-6C-6 67.0105 -5.60524 72.2822 -4.41524 76.4472L14.8152 70.9528ZM14 61.25C14 56.3451 14.5275 52.255 15.4476 48.8812L-3.84764 43.6188C-5.3275 49.045 -6 54.9549 -6 61.25H14ZM15.4623 48.8266C15.6777 48.0191 15.8698 47.4708 16.0118 47.1284C16.1607 46.7696 16.1983 46.7736 16.0496 46.9827C15.9048 47.1863 15.4235 47.809 14.475 48.4019C13.4375 49.0503 12.0908 49.5 10.6 49.5V29.5C5.22843 29.5 1.65478 32.7143 -0.249554 35.3923C-2.05812 37.9356 -3.13612 40.95 -3.86235 43.6734L15.4623 48.8266ZM10.6 49.5H91.75V29.5H10.6V49.5ZM91.75 49.5C90.4976 49.5 89.1467 49.1884 87.8952 48.4876C86.6905 47.8129 85.9242 46.9736 85.4877 46.3624C84.7386 45.3137 84.7671 44.6818 84.9057 45.4579L104.594 41.9421C104.233 39.9182 103.511 37.1863 101.762 34.7376C99.7026 31.854 96.2394 29.5 91.75 29.5V49.5ZM84.972 45.7953C85.3489 47.5541 85.65 50.7674 85.65 55.85H105.65C105.65 50.3326 105.351 45.4459 104.528 41.6047L84.972 45.7953ZM85.65 55.85C85.65 60.4569 85.1722 64.687 84.2631 68.5711L103.737 73.1288C105.028 67.613 105.65 61.8431 105.65 55.85H85.65ZM84.2631 68.5712C84.057 69.4519 83.8669 70.0696 83.7177 70.4742C83.5611 70.8988 83.5036 70.9408 83.6208 70.7571C83.7263 70.5918 84.1843 69.9104 85.1642 69.2331C86.2567 68.478 87.7645 67.9 89.5 67.9V87.9C95.2857 87.9 98.8167 84.1224 100.479 81.5178C102.125 78.9393 103.089 75.8972 103.737 73.1288L84.2631 68.5712ZM89.5 67.9H70.75V87.9H89.5V67.9ZM60.75 77.9V142.4H80.75V77.9H60.75ZM135.905 145.1L136.97 155.043L137.047 155.035L137.124 155.025L135.905 145.1ZM106.655 145.25L103.493 154.737L103.734 154.817L103.979 154.885L106.655 145.25ZM112.205 62.3L108.549 52.9925L108.52 53.0038L108.491 53.0152L112.205 62.3ZM141.455 64.4L151.227 62.2757L151.222 62.2532L151.217 62.2307L141.455 64.4ZM142.955 71.3L133.183 73.4243L134.895 81.3H142.955V71.3ZM144.005 71.3V81.3H150.978L153.389 74.7571L144.005 71.3ZM154.055 61.7L158.459 70.6779L158.527 70.6446L158.594 70.6104L154.055 61.7ZM181.055 60.2L174.763 67.9724L174.851 68.0436L174.941 68.1128L181.055 60.2ZM180.755 90.2L171.268 87.0377L171.238 87.1272L171.21 87.2172L180.755 90.2ZM165.305 95.15L168.028 85.5279L168.028 85.5279L165.305 95.15ZM145.655 94.4L138.222 87.7103L138.028 87.9262L137.846 88.153L145.655 94.4ZM134.455 98.6V142.4H154.455V98.6H134.455ZM134.455 142.4C134.455 137.862 137.459 135.505 138.176 135.002C139.047 134.391 139.636 134.26 139.306 134.364C138.778 134.531 137.375 134.844 134.686 135.175L137.124 155.025C140.135 154.656 143.007 154.169 145.329 153.436C146.424 153.09 148.082 152.484 149.665 151.373C151.095 150.37 154.455 147.488 154.455 142.4H134.455ZM134.84 135.157C129.621 135.716 124.128 136 118.355 136V156C124.782 156 130.989 155.684 136.97 155.043L134.84 135.157ZM118.355 136C115.469 136 113.226 135.939 111.57 135.833C109.732 135.715 109.177 135.572 109.332 135.615L103.979 154.885C105.934 155.428 108.228 155.66 110.29 155.792C112.534 155.936 115.241 156 118.355 156V136ZM109.817 135.763C109.823 135.765 110.815 136.075 111.89 137.21C113.186 138.579 113.955 140.472 113.955 142.4H93.9551C93.9551 145.628 95.1739 148.646 97.3706 150.965C99.3454 153.05 101.687 154.135 103.493 154.737L109.817 135.763ZM113.955 142.4V68.45H93.9551V142.4H113.955ZM113.955 68.45C113.955 70.5031 113.189 71.9755 112.678 72.7106C112.206 73.3877 111.834 73.6245 111.994 73.505C112.118 73.4128 112.474 73.1726 113.175 72.8116C113.86 72.4589 114.763 72.0473 115.919 71.5848L108.491 53.0152C105.428 54.2405 102.438 55.6835 100.041 57.47C98.083 58.9296 93.9551 62.5189 93.9551 68.45H113.955ZM115.862 71.6075C120.206 69.9007 125.005 69 130.355 69V49C122.705 49 115.404 50.2993 108.549 52.9925L115.862 71.6075ZM130.355 69C131.57 69 132.446 69.0844 133.04 69.1882C133.643 69.2936 133.811 69.3939 133.705 69.3423C133.572 69.2776 133.115 69.0224 132.629 68.4393C132.12 67.8287 131.822 67.1467 131.693 66.5693L151.217 62.2307C150.073 57.0829 146.686 53.416 142.455 51.3576C138.661 49.5122 134.356 49 130.355 49V69ZM131.683 66.5243L133.183 73.4243L152.727 69.1757L151.227 62.2757L131.683 66.5243ZM142.955 81.3H144.005V61.3H142.955V81.3ZM153.389 74.7571C153.565 74.2779 154.419 72.6601 158.459 70.6779L149.651 52.7221C143.091 55.9399 137.245 60.7221 134.622 67.8429L153.389 74.7571ZM158.594 70.6104C162.662 68.5381 166.417 67.65 169.955 67.65V47.65C162.893 47.65 156.048 49.4619 149.516 52.7896L158.594 70.6104ZM169.955 67.65C172.124 67.65 173.575 67.829 174.466 68.0336C175.396 68.2471 175.276 68.3873 174.763 67.9724L187.347 52.4275C182.414 48.4345 175.669 47.65 169.955 47.65V67.65ZM174.941 68.1128C175.007 68.1638 174.791 68.008 174.586 67.5971C174.376 67.177 174.355 66.8483 174.355 66.8H194.355C194.355 60.8969 191.735 55.815 187.17 52.2871L174.941 68.1128ZM174.355 66.8C174.355 68.9455 174.187 71.939 173.802 75.879L193.708 77.821C194.123 73.561 194.355 69.8545 194.355 66.8H174.355ZM173.802 75.879C173.489 79.0871 172.683 82.7939 171.268 87.0377L190.242 93.3623C192.027 88.0061 193.221 82.8128 193.708 77.821L173.802 75.879ZM171.21 87.2172C170.948 88.0559 170.715 88.6233 170.543 88.9781C170.365 89.3434 170.309 89.3646 170.448 89.1982C170.594 89.0232 171.029 88.554 171.83 88.1265C172.686 87.6701 173.705 87.4 174.755 87.4V107.4C179.695 107.4 183.429 104.862 185.812 102.002C188.007 99.368 189.369 96.1623 190.3 93.1828L171.21 87.2172ZM174.755 87.4C175.453 87.4 175.808 87.4961 175.38 87.4188C175.11 87.3699 174.651 87.2743 173.959 87.1094C172.582 86.7816 170.623 86.2622 168.028 85.5279L162.582 104.772C165.288 105.538 167.553 106.143 169.326 106.566C170.639 106.878 172.863 107.4 174.755 107.4V87.4ZM168.028 85.5279C162.287 83.9032 156.896 82.9 152.105 82.9V102.9C154.314 102.9 157.723 103.397 162.582 104.772L168.028 85.5279ZM152.105 82.9C150.005 82.9 147.78 83.0459 145.677 83.5349C143.77 83.9786 140.667 84.9936 138.222 87.7103L153.088 101.09C152.269 101.999 151.45 102.485 150.978 102.717C150.732 102.838 150.537 102.912 150.415 102.953C150.292 102.995 150.219 103.013 150.208 103.015C150.196 103.018 150.34 102.985 150.687 102.953C151.026 102.923 151.492 102.9 152.105 102.9V82.9ZM137.846 88.153C135.151 91.5227 134.455 95.4337 134.455 98.6H154.455C154.455 98.1663 154.559 99.2773 153.464 100.647L137.846 88.153ZM198.896 140.9L192.388 148.493L192.455 148.55L192.523 148.606L198.896 140.9ZM193.346 132.95L184.154 136.889L184.201 136.999L184.251 137.108L193.346 132.95ZM194.396 108.35L186.039 102.858L185.983 102.943L185.929 103.028L194.396 108.35ZM213.896 95.6L211.365 85.9254L211.286 85.9461L211.208 85.968L213.896 95.6ZM240.296 93.05V103.05H250.296V93.05H240.296ZM236.096 84.35L241.285 75.8021L241.21 75.7565L241.134 75.7122L236.096 84.35ZM221.696 85.25L218.214 75.8757L218.169 75.8924L218.124 75.9095L221.696 85.25ZM213.146 89.3L218.066 98.0056L218.207 97.9261L218.345 97.842L213.146 89.3ZM201.146 84.2L192.745 89.6253L192.771 89.6657L192.798 89.7059L201.146 84.2ZM202.046 66.05L197.11 57.3531L197.11 57.3531L202.046 66.05ZM217.646 60.35L220.105 70.0428L220.155 70.0302L220.205 70.017L217.646 60.35ZM253.946 59.3L251.62 69.0258L251.742 69.055L251.865 69.0811L253.946 59.3ZM265.346 63.05L260.751 71.9322L260.812 71.9636L260.874 71.9943L265.346 63.05ZM272.846 69.05L265.037 75.297L265.112 75.3903L265.189 75.4819L272.846 69.05ZM277.496 75.8L268.551 80.2721L268.639 80.4474L268.734 80.6192L277.496 75.8ZM279.896 83.6L270.016 85.1438L270.04 85.3018L270.07 85.4589L279.896 83.6ZM272.846 145.1L273.971 155.037L274.051 155.027L274.131 155.017L272.846 145.1ZM246.746 145.55L244.785 155.356L244.844 155.368L244.903 155.379L246.746 145.55ZM244.046 144.5L252.046 138.5L252.046 138.5L244.046 144.5ZM243.296 142.4L233.393 143.79L233.433 144.077L233.49 144.361L243.296 142.4ZM242.096 133.85L251.999 132.46L250.79 123.85H242.096V133.85ZM240.896 133.85V123.85H233.295L231.261 131.174L240.896 133.85ZM240.446 104.9H250.446V94.9H240.446V104.9ZM234.146 108.2L226.058 102.318L226.058 102.318L234.146 108.2ZM239.246 124.7L245.754 132.293L245.792 132.259L245.831 132.226L239.246 124.7ZM220.346 137.35C212.76 137.35 208.136 135.565 205.268 133.194L192.523 148.606C200.055 154.835 209.731 157.35 220.346 157.35V137.35ZM205.404 133.307C204.747 132.745 203.659 131.457 202.44 128.792L184.251 137.108C186.233 141.443 188.844 145.455 192.388 148.493L205.404 133.307ZM202.537 129.011C201.68 127.011 201.096 124.304 201.096 120.65H181.096C181.096 126.396 182.011 131.889 184.154 136.889L202.537 129.011ZM201.096 120.65C201.096 117.569 201.796 115.368 202.862 113.672L185.929 103.028C182.595 108.332 181.096 114.331 181.096 120.65H201.096ZM202.753 113.842C204.324 111.451 206.012 109.881 207.751 108.849L197.54 91.6515C192.879 94.419 189.067 98.2494 186.039 102.858L202.753 113.842ZM207.751 108.849C210.061 107.477 212.969 106.241 216.584 105.232L211.208 85.968C206.223 87.3592 201.63 89.2232 197.54 91.6515L207.751 108.849ZM216.426 105.275C221.98 103.822 228.266 103.05 235.346 103.05V83.05C226.825 83.05 218.811 83.978 211.365 85.9254L216.426 105.275ZM235.346 103.05H240.296V83.05H235.346V103.05ZM250.296 93.05C250.296 86.47 247.847 79.786 241.285 75.8021L230.906 92.8979C230.834 92.8544 230.698 92.7564 230.548 92.5927C230.398 92.428 230.297 92.2653 230.24 92.1475C230.132 91.9235 230.296 92.1071 230.296 93.05H250.296ZM241.134 75.7122C237.618 73.6607 233.601 73.3 230.546 73.3V93.3C230.941 93.3 231.255 93.3139 231.497 93.3334C231.74 93.353 231.886 93.3762 231.949 93.3882C232.014 93.4005 231.961 93.3951 231.819 93.346C231.677 93.2971 231.405 93.1908 231.057 92.9878L241.134 75.7122ZM230.546 73.3C226.486 73.3 222.278 74.3661 218.214 75.8757L225.178 94.6243C228.113 93.5339 229.806 93.3 230.546 93.3V73.3ZM218.124 75.9095C214.342 77.3558 210.908 78.9554 207.946 80.758L218.345 97.842C219.984 96.8446 222.25 95.7442 225.267 94.5905L218.124 75.9095ZM208.225 80.5944C207.754 80.8604 207.362 81.0703 207.043 81.2321C206.719 81.3964 206.506 81.4921 206.391 81.5406C206.336 81.5636 206.322 81.5681 206.343 81.5603C206.363 81.5532 206.442 81.5257 206.57 81.49C206.696 81.4554 206.914 81.4005 207.207 81.3522C207.493 81.3051 207.937 81.25 208.496 81.25V101.25C211.021 101.25 213.178 100.382 214.125 99.9844C215.404 99.4481 216.744 98.7528 218.066 98.0056L208.225 80.5944ZM208.496 81.25C210.227 81.25 211.409 81.807 211.863 82.0581C212.323 82.3127 212.445 82.4769 212.23 82.2707C212.04 82.088 211.698 81.7235 211.206 81.0988C210.722 80.484 210.151 79.6916 209.493 78.694L192.798 89.7059C194.528 92.3284 196.388 94.7881 198.386 96.7043C200.008 98.2603 203.524 101.25 208.496 101.25V81.25ZM209.546 78.7747C207.032 74.8818 206.496 72.426 206.496 71.15H186.496C186.496 77.674 189.06 83.9182 192.745 89.6253L209.546 78.7747ZM206.496 71.15C206.496 73.2267 205.761 74.6885 205.354 75.3489C205.137 75.7014 204.943 75.9411 204.831 76.0703C204.772 76.1383 204.726 76.1872 204.696 76.2172C204.667 76.2474 204.65 76.2626 204.649 76.2633C204.649 76.264 204.661 76.253 204.687 76.2304C204.714 76.208 204.753 76.1761 204.806 76.135C204.913 76.0516 205.064 75.9401 205.267 75.8012C205.678 75.5197 206.24 75.1677 206.982 74.7468L197.11 57.3531C194.987 58.5577 192.852 59.9423 191.117 61.5367C189.849 62.7018 186.496 66.0056 186.496 71.15H206.496ZM206.982 74.7469C209.574 73.2755 213.804 71.6417 220.105 70.0428L215.186 50.6571C208.087 52.4583 201.917 54.6245 197.11 57.3531L206.982 74.7469ZM220.205 70.017C226.251 68.4164 231.99 67.65 237.446 67.65V47.65C230.101 47.65 222.64 48.6835 215.087 50.6829L220.205 70.017ZM237.446 67.65C243.318 67.65 247.995 68.1591 251.62 69.0258L256.271 49.5742C250.696 48.2409 244.374 47.65 237.446 47.65V67.65ZM251.865 69.0811C256.061 69.9739 258.923 70.9864 260.751 71.9322L269.94 54.1678C265.968 52.1136 261.231 50.6261 256.027 49.5189L251.865 69.0811ZM260.874 71.9943C262.642 72.8787 263.984 73.9807 265.037 75.297L280.654 62.803C277.707 59.1193 274.049 56.2213 269.818 54.1057L260.874 71.9943ZM265.189 75.4819C266.993 77.6295 268.022 79.2139 268.551 80.2721L286.44 71.3279C284.969 68.3861 282.899 65.4705 280.503 62.6181L265.189 75.4819ZM268.734 80.6192C269.092 81.2711 269.626 82.6502 270.016 85.1438L289.776 82.0562C289.165 78.1498 288.099 74.3289 286.258 70.9808L268.734 80.6192ZM270.07 85.4589C270.616 88.3457 270.946 92.2299 270.946 97.25H290.946C290.946 91.4701 290.575 86.2543 289.721 81.7411L270.07 85.4589ZM270.946 97.25V142.4H290.946V97.25H270.946ZM270.946 142.4C270.946 138.108 273.663 135.762 274.487 135.152C275.385 134.487 276.025 134.324 275.758 134.413C275.343 134.551 274.088 134.855 271.56 135.183L274.131 155.017C277.004 154.645 279.798 154.149 282.083 153.387C283.166 153.026 284.819 152.388 286.392 151.223C287.891 150.113 290.946 147.242 290.946 142.4H270.946ZM271.721 135.163C266.792 135.721 261.867 136 256.946 136V156C262.624 156 268.3 155.679 273.971 155.037L271.721 135.163ZM256.946 136C254.425 136 252.435 135.963 250.936 135.897C250.189 135.864 249.611 135.826 249.18 135.787C248.722 135.746 248.556 135.715 248.589 135.721L244.903 155.379C247.583 155.881 251.948 156 256.946 156V136ZM248.707 135.744C248.237 135.65 248.263 135.623 248.57 135.742C248.734 135.806 249.15 135.977 249.683 136.311C250.178 136.62 251.143 137.296 252.046 138.5L236.046 150.5C237.948 153.037 240.485 154.057 241.321 154.383C242.528 154.852 243.754 155.15 244.785 155.356L248.707 135.744ZM252.046 138.5C252.401 138.974 252.633 139.39 252.774 139.672C252.918 139.959 253.005 140.183 253.051 140.312C253.136 140.552 253.139 140.624 253.102 140.439L233.49 144.361C233.74 145.611 234.324 148.204 236.046 150.5L252.046 138.5ZM253.199 141.01L251.999 132.46L232.193 135.24L233.393 143.79L253.199 141.01ZM242.096 123.85H240.896V143.85H242.096V123.85ZM231.261 131.174C230.562 133.688 229.511 134.882 228.393 135.617C227.095 136.47 224.688 137.35 220.346 137.35V157.35C227.203 157.35 233.821 155.98 239.374 152.333C245.105 148.568 248.729 143.012 250.531 136.526L231.261 131.174ZM250.446 122.45V104.9H230.446V122.45H250.446ZM240.446 94.9C234.476 94.9 229.438 97.6717 226.058 102.318L242.233 114.082C242.262 114.042 242.062 114.321 241.561 114.583C241.044 114.854 240.602 114.9 240.446 114.9V94.9ZM226.058 102.318C223.177 106.28 221.746 110.853 221.746 115.7H241.746C241.746 114.947 241.915 114.52 242.233 114.082L226.058 102.318ZM221.746 115.7C221.746 119.445 222.123 123.646 223.767 127.263C224.645 129.194 226.065 131.36 228.363 133.045C230.773 134.812 233.538 135.6 236.246 135.6V115.6C237.453 115.6 238.906 115.975 240.191 116.917C241.364 117.777 241.847 118.706 241.974 118.987C242.095 119.252 242.012 119.179 241.914 118.533C241.821 117.919 241.746 116.996 241.746 115.7H221.746ZM236.246 135.6C238.964 135.6 242.621 134.978 245.754 132.293L232.738 117.107C234.471 115.622 236.127 115.6 236.246 115.6V135.6ZM245.831 132.226C248.047 130.287 250.446 127.004 250.446 122.45H230.446C230.446 121.106 230.799 119.887 231.322 118.907C231.814 117.984 232.369 117.429 232.661 117.174L245.831 132.226ZM291.305 65.75L296.136 74.5058L296.25 74.4428L296.362 74.377L291.305 65.75ZM303.155 61.1L305.851 70.7296L305.851 70.7296L303.155 61.1ZM332.855 66.05L322.875 66.687L322.88 66.7604L322.886 66.8337L332.855 66.05ZM336.605 113.75L326.636 114.534L327.36 123.75H336.605V113.75ZM338.555 113.75V123.75H347.853L348.529 114.477L338.555 113.75ZM341.855 68.45L331.887 67.6525L331.884 67.688L331.882 67.7234L341.855 68.45ZM381.305 60.35L377.918 69.7589L377.976 69.7797L378.034 69.7999L381.305 60.35ZM386.255 63.2L378.063 68.9346L378.207 69.1408L378.362 69.3394L386.255 63.2ZM380.855 81.05L371.729 76.9622L371.711 77.0019L371.694 77.0418L380.855 81.05ZM355.505 142.4L364.736 146.246L364.754 146.203L364.771 146.16L355.505 142.4ZM321.605 145.25L317.891 154.535L318.164 154.644L318.443 154.737L321.605 145.25ZM318.605 142.4L327.939 138.81L327.92 138.762L327.901 138.714L318.605 142.4ZM297.605 93.35L288.524 97.5368L288.529 97.5481L288.534 97.5594L297.605 93.35ZM296.955 69.65C296.955 71.8512 296.161 73.4231 295.686 74.1767C295.211 74.9301 294.774 75.3203 294.718 75.3707C294.623 75.456 294.956 75.1565 296.136 74.5058L286.474 56.9942C284.754 57.9435 282.912 59.094 281.367 60.4793C280.318 61.4199 276.955 64.5657 276.955 69.65H296.955ZM296.362 74.377C298.235 73.2791 301.282 72.0092 305.851 70.7296L300.459 51.4704C295.029 52.9908 290.175 54.8209 286.248 57.123L296.362 74.377ZM305.851 70.7296C310.045 69.5554 314.038 69 317.855 69V49C312.072 49 306.265 49.8446 300.459 51.4704L305.851 70.7296ZM317.855 69C319.9 69 321.484 69.1256 322.67 69.3152C323.88 69.5087 324.461 69.735 324.626 69.8127C324.766 69.8785 324.29 69.6856 323.756 68.9747C323.166 68.1898 322.916 67.3195 322.875 66.687L342.835 65.413C342.408 58.7264 338.248 54.1159 333.134 51.7123C328.651 49.6053 323.226 49 317.855 49V69ZM322.886 66.8337L326.636 114.534L346.574 112.966L342.824 65.2662L322.886 66.8337ZM336.605 123.75H338.555V103.75H336.605V123.75ZM348.529 114.477L351.829 69.1765L331.882 67.7234L328.582 113.023L348.529 114.477ZM351.823 69.2474C351.691 70.9029 351.025 72.1049 350.513 72.7648C350.057 73.3512 349.736 73.5052 349.969 73.3566C350.175 73.225 350.657 72.9578 351.535 72.6034C352.396 72.2555 353.516 71.8727 354.933 71.4706L349.477 52.2294C345.749 53.2865 342.138 54.6302 339.216 56.4934C336.515 58.2155 332.361 61.7296 331.887 67.6525L351.823 69.2474ZM354.933 71.4706C361.045 69.7373 365.994 69 369.905 69V49C363.616 49 356.765 50.1626 349.477 52.2294L354.933 71.4706ZM369.905 69C374.71 69 377.093 69.462 377.918 69.7589L384.692 50.9411C380.517 49.438 375.3 49 369.905 49V69ZM378.034 69.7999C378.484 69.9556 378.83 70.0918 379.086 70.2034C379.346 70.3164 379.474 70.3871 379.503 70.4037C379.538 70.424 379.401 70.3496 379.166 70.155C378.937 69.9646 378.509 69.572 378.063 68.9346L394.447 57.4654C392.919 55.2812 390.939 53.9099 389.482 53.0713C387.928 52.1765 386.234 51.474 384.576 50.9001L378.034 69.7999ZM378.362 69.3394C378.348 69.3217 378.122 69.0339 377.881 68.4832C377.636 67.9224 377.305 66.926 377.305 65.6H397.305C397.305 61.6609 395.421 58.6971 394.149 57.0606L378.362 69.3394ZM377.305 65.6C377.305 64.5845 377.471 63.8321 377.501 63.6914C377.557 63.4298 377.608 63.2588 377.617 63.228C377.636 63.1624 377.617 63.2341 377.516 63.5098C377.321 64.0397 376.982 64.8944 376.464 66.135C375.439 68.5901 373.869 72.185 371.729 76.9622L389.981 85.1378C392.142 80.315 393.796 76.5348 394.921 73.84C395.478 72.5055 395.945 71.3416 396.288 70.409C396.456 69.9534 396.638 69.4329 396.792 68.9142C396.819 68.8218 397.305 67.3411 397.305 65.6H377.305ZM371.694 77.0418C367.43 86.788 358.928 107.368 346.239 138.64L364.771 146.16C377.483 114.832 385.881 94.512 390.017 85.0582L371.694 77.0418ZM346.274 138.554C347.029 136.744 348.175 135.71 348.778 135.257C349.097 135.016 349.357 134.866 349.508 134.787C349.661 134.705 349.751 134.67 349.753 134.669C349.758 134.668 349.706 134.688 349.584 134.725C349.464 134.761 349.295 134.807 349.069 134.861C348.611 134.969 347.992 135.088 347.186 135.207C343.84 135.699 338.555 136 331.055 136V156C338.855 156 345.295 155.701 350.099 154.993C352.458 154.646 354.906 154.134 357.076 153.281C358.727 152.631 362.835 150.809 364.736 146.246L346.274 138.554ZM331.055 136C328.799 136 327.098 135.94 325.884 135.844C325.28 135.796 324.875 135.745 324.632 135.706C324.352 135.661 324.448 135.657 324.767 135.763L318.443 154.737C320.391 155.386 322.553 155.642 324.301 155.781C326.237 155.935 328.511 156 331.055 156V136ZM325.319 135.965C325.548 136.057 326.055 136.303 326.618 136.838C327.206 137.396 327.661 138.088 327.939 138.81L309.272 145.99C310.933 150.31 314.26 153.082 317.891 154.535L325.319 135.965ZM327.901 138.714C320.938 121.156 313.864 104.63 306.676 89.1406L288.534 97.5594C295.546 112.67 302.472 128.844 309.309 146.086L327.901 138.714ZM306.686 89.1632C303.14 81.4704 300.494 75.6808 298.739 71.7762C297.858 69.8161 297.222 68.376 296.815 67.4237C296.606 66.9361 296.49 66.6508 296.438 66.5172C296.407 66.4378 296.436 66.5084 296.488 66.6639C296.511 66.7346 296.58 66.9452 296.654 67.2349C296.664 67.2706 296.955 68.3054 296.955 69.65H276.955C276.955 71.0196 277.254 72.0941 277.276 72.184C277.364 72.528 277.454 72.8076 277.505 72.9619C277.612 73.2846 277.725 73.581 277.805 73.7859C277.975 74.221 278.191 74.7389 278.426 75.2888C278.907 76.4115 279.602 77.9839 280.496 79.9738C282.292 83.9692 284.97 89.8296 288.524 97.5368L306.686 89.1632ZM432.712 112.1V102.1H422.712V112.1H432.712ZM456.112 118.25L459.935 127.49L460.003 127.462L460.07 127.433L456.112 118.25ZM472.762 123.05L463.977 127.828L463.977 127.828L472.762 123.05ZM465.412 144.5L467.837 154.201L467.837 154.201L465.412 144.5ZM422.662 145.7L420.371 155.434L420.392 155.439L420.413 155.444L422.662 145.7ZM410.062 141.2L404.956 149.799L405.113 149.892L405.273 149.979L410.062 141.2ZM401.512 134.3L394.038 140.944L394.105 141.02L394.174 141.094L401.512 134.3ZM396.112 126.65L387.096 130.977L387.131 131.05L387.167 131.122L396.112 126.65ZM393.262 118.4L383.51 120.616L383.517 120.644L383.523 120.672L393.262 118.4ZM406.012 67.1L411.888 75.191L411.937 75.156L411.984 75.1204L406.012 67.1ZM421.762 59.75L419.415 50.0292L419.415 50.0292L421.762 59.75ZM432.412 100.1H422.412V110.1H432.412V100.1ZM439.462 96.65L431.752 90.2812L431.668 90.383L431.587 90.4869L439.462 96.65ZM422.712 112.1C422.712 116.777 423.819 122.14 427.801 126.315C431.867 130.577 437.247 131.85 442.012 131.85V111.85C441.307 111.85 441.11 111.754 441.242 111.8C441.317 111.827 441.471 111.89 441.669 112.014C441.87 112.141 442.079 112.307 442.273 112.51C442.466 112.713 442.605 112.911 442.699 113.074C442.79 113.234 442.822 113.333 442.823 113.336C442.823 113.336 442.794 113.244 442.765 113.035C442.737 112.826 442.712 112.519 442.712 112.1H422.712ZM442.012 131.85C447.556 131.85 453.69 130.074 459.935 127.49L452.288 109.01C446.933 111.226 443.668 111.85 442.012 111.85V131.85ZM460.07 127.433C462.955 126.19 465.101 125.281 466.541 124.691C467.273 124.391 467.748 124.204 468.017 124.103C468.164 124.049 468.149 124.057 468.037 124.093C467.988 124.108 467.8 124.167 467.532 124.232C467.396 124.265 467.16 124.32 466.859 124.369C466.611 124.41 466.023 124.5 465.262 124.5V104.5C463.958 104.5 462.929 104.769 462.815 104.797C462.466 104.881 462.176 104.97 462.003 105.025C461.644 105.138 461.297 105.264 461.025 105.365C460.457 105.577 459.751 105.859 458.957 106.184C457.347 106.844 455.068 107.81 452.153 109.067L460.07 127.433ZM465.262 124.5C463.205 124.5 461.839 123.736 461.363 123.428C460.879 123.114 460.781 122.932 461.044 123.232C461.276 123.496 461.658 123.986 462.184 124.788C462.701 125.578 463.299 126.582 463.977 127.828L481.547 118.272C479.855 115.161 478.042 112.281 476.079 110.043C474.605 108.362 470.91 104.5 465.262 104.5V124.5ZM463.977 127.828C465.389 130.424 466.315 132.441 466.868 133.937C467.466 135.56 467.412 136.006 467.412 135.65H487.412C487.412 132.594 486.582 129.59 485.631 127.013C484.633 124.309 483.234 121.376 481.547 118.272L463.977 127.828ZM467.412 135.65C467.412 134.822 467.649 134.001 468.026 133.354C468.362 132.778 468.649 132.612 468.476 132.739C468.297 132.872 467.81 133.181 466.848 133.577C465.901 133.968 464.633 134.387 462.986 134.799L467.837 154.201C472.378 153.066 476.827 151.432 480.347 148.836C484.128 146.047 487.412 141.63 487.412 135.65H467.412ZM462.986 134.799C455.724 136.614 448.688 137.5 441.862 137.5V157.5C450.435 157.5 459.1 156.386 467.837 154.201L462.986 134.799ZM441.862 137.5C434.728 137.5 429.135 136.931 424.91 135.956L420.413 155.444C426.588 156.869 433.796 157.5 441.862 157.5V137.5ZM424.952 135.966C420.409 134.897 417.123 133.661 414.85 132.421L405.273 149.979C409.6 152.339 414.714 154.103 420.371 155.434L424.952 135.966ZM415.167 132.601C412.785 131.187 410.688 129.492 408.849 127.506L394.174 141.094C397.335 144.508 400.939 147.413 404.956 149.799L415.167 132.601ZM408.986 127.656C406.982 125.402 405.755 123.575 405.056 122.178L387.167 131.122C388.869 134.525 391.242 137.798 394.038 140.944L408.986 127.656ZM405.127 122.323C404.275 120.547 403.553 118.496 403 116.128L383.523 120.672C384.371 124.304 385.549 127.753 387.096 130.977L405.127 122.323ZM403.013 116.184C402.185 112.541 401.762 108.735 401.762 104.75H381.762C381.762 110.165 382.338 115.459 383.51 120.616L403.013 116.184ZM401.762 104.75C401.762 87.9405 406.16 79.352 411.888 75.191L400.135 59.009C386.864 68.648 381.762 85.1595 381.762 104.75H401.762ZM411.984 75.1204C415.583 72.4409 419.595 70.5603 424.108 69.4708L419.415 50.0292C412.329 51.7397 405.841 54.7591 400.039 59.0796L411.984 75.1204ZM424.108 69.4708C428.938 68.3049 434.964 67.65 442.312 67.65V47.65C433.86 47.65 426.185 48.3951 419.415 50.0292L424.108 69.4708ZM442.312 67.65C454.11 67.65 461.18 69.7577 465.064 72.459C468.288 74.7019 470.262 77.9849 470.262 84.05H490.262C490.262 72.515 485.911 62.5981 476.485 56.0409C467.718 49.9423 455.813 47.65 442.312 47.65V67.65ZM470.262 84.05C470.262 90.4335 468.086 94.1187 464.112 96.7355C459.408 99.8332 451.082 102.1 437.662 102.1V122.1C452.641 122.1 465.616 119.692 475.111 113.44C485.337 106.706 490.262 96.3665 490.262 84.05H470.262ZM437.662 102.1H432.712V122.1H437.662V102.1ZM422.412 90.2V100.1H442.412V90.2H422.412ZM432.412 110.1C438.413 110.1 443.657 107.515 447.337 102.813L431.587 90.4869C431.539 90.5473 431.545 90.5286 431.616 90.4696C431.69 90.4081 431.804 90.3285 431.954 90.2553C432.103 90.1821 432.241 90.1386 432.344 90.116C432.443 90.0942 432.474 90.1 432.412 90.1V110.1ZM447.171 103.019C450.711 98.7336 452.312 93.6113 452.312 88.25H432.312C432.312 89.4887 432.012 89.9664 431.752 90.2812L447.171 103.019ZM452.312 88.25C452.312 84.7138 451.909 80.5403 450.033 76.9098C449.02 74.9486 447.458 72.9193 445.117 71.4095C442.73 69.8695 440.121 69.25 437.662 69.25V89.25C436.753 89.25 435.499 89.0055 434.275 88.2155C433.097 87.4557 432.503 86.5514 432.265 86.0902C432.05 85.6749 432.089 85.5627 432.166 86.0097C432.239 86.4316 432.312 87.1531 432.312 88.25H452.312ZM437.662 69.25C434.949 69.25 432.147 69.992 429.656 71.7237C427.249 73.3973 425.697 75.5994 424.707 77.6642C422.856 81.5255 422.412 86.0697 422.412 90.2H442.412C442.412 88.7485 442.501 87.7008 442.615 86.9875C442.733 86.2453 442.842 86.1005 442.741 86.3108C442.626 86.5506 442.168 87.384 441.073 88.145C439.895 88.9643 438.625 89.25 437.662 89.25V69.25ZM521.159 145.1L522.206 155.045L522.292 155.036L522.378 155.025L521.159 145.1ZM491.759 145.25L488.431 154.68L488.753 154.794L489.083 154.885L491.759 145.25ZM497.609 32.15L494.152 22.7666L494.125 22.7766L494.098 22.7867L497.609 32.15ZM519.709 35.9V142.4H539.709V35.9H519.709ZM519.709 142.4C519.709 137.862 522.713 135.505 523.43 135.002C524.3 134.391 524.89 134.26 524.56 134.364C524.032 134.531 522.629 134.844 519.94 135.175L522.378 155.025C525.389 154.656 528.261 154.169 530.583 153.436C531.678 153.09 533.336 152.484 534.919 151.373C536.349 150.37 539.709 147.488 539.709 142.4H519.709ZM520.112 135.155C514.781 135.716 509.231 136 503.459 136V156C509.886 156 516.137 155.684 522.206 155.045L520.112 135.155ZM503.459 136C500.573 136 498.33 135.939 496.674 135.833C494.836 135.715 494.28 135.572 494.435 135.615L489.083 154.885C491.038 155.428 493.332 155.66 495.394 155.792C497.638 155.936 500.345 156 503.459 156V136ZM495.087 135.82C495.203 135.861 496.235 136.23 497.299 137.42C498.55 138.818 499.209 140.643 499.209 142.4H479.209C479.209 145.457 480.293 148.407 482.394 150.755C484.308 152.895 486.615 154.039 488.431 154.68L495.087 135.82ZM499.209 142.4V38.6H479.209V142.4H499.209ZM499.209 38.6C499.209 40.2861 498.646 41.5902 498.143 42.3718C497.689 43.0762 497.301 43.3442 497.399 43.269C497.474 43.2114 497.783 42.9943 498.449 42.6573C499.099 42.3281 499.976 41.9424 501.12 41.5133L494.098 22.7867C490.919 23.9787 487.761 25.4542 485.219 27.406C482.849 29.2253 479.209 32.8978 479.209 38.6H499.209ZM501.066 41.5334C505.584 39.869 510.506 39 515.909 39V19C508.312 19 501.034 20.231 494.152 22.7666L501.066 41.5334ZM515.909 39C517.819 39 519.259 39.1213 520.302 39.2952C520.816 39.3807 521.189 39.4718 521.445 39.5486C521.702 39.6258 521.802 39.6769 521.787 39.6693C521.751 39.6511 521.123 39.3231 520.526 38.4282C519.888 37.4708 519.709 36.4998 519.709 35.9H539.709C539.709 33.0002 538.955 30.0167 537.167 27.3342C535.42 24.7144 533.067 22.9489 530.731 21.7807C526.342 19.5859 521.02 19 515.909 19V39ZM543.486 144.95L547.293 135.703L547.293 135.703L543.486 144.95ZM618.636 42.8L623.218 33.912L623.191 33.898L623.164 33.8842L618.636 42.8ZM630.936 55.4L640.422 52.2377L640.395 52.1545L640.365 52.0718L630.936 55.4ZM628.386 83.45L620.164 77.7579L620.114 77.83L620.065 77.903L628.386 83.45ZM619.836 90.05L618.243 80.1776L617.754 99.8311L619.836 90.05ZM631.536 96.95L639.113 90.4248L639.113 90.4248L631.536 96.95ZM627.036 137.45L620.852 129.591L620.838 129.602L620.825 129.613L627.036 137.45ZM602.736 145.4L603.602 155.362L603.671 155.356L603.74 155.349L602.736 145.4ZM592.086 62.9L584.142 68.9745L584.342 69.2367L584.56 69.485L592.086 62.9ZM582.786 60.35V50.35H572.786V60.35H582.786ZM582.786 80.6H572.786V90.6H582.786V80.6ZM582.786 123.65H572.786V133.65H582.786V123.65ZM592.086 105.95L584.142 112.024L584.342 112.287L584.56 112.535L592.086 105.95ZM582.786 103.4V93.4H572.786V103.4H582.786ZM586.386 136H553.536V156H586.386V136ZM553.536 136C551.234 136 549.52 135.918 548.312 135.792C546.938 135.648 546.808 135.504 547.293 135.703L539.678 154.197C541.863 155.096 544.258 155.477 546.234 155.683C548.376 155.907 550.837 156 553.536 156V136ZM547.293 135.703C547.556 135.811 548.549 136.273 549.486 137.486C550.524 138.828 550.936 140.373 550.936 141.65H530.936C530.936 144.427 531.772 147.272 533.66 149.714C535.447 152.027 537.715 153.389 539.678 154.197L547.293 135.703ZM550.936 141.65V45.2H530.936V141.65H550.936ZM550.936 45.2C550.936 49.9222 547.236 51.4334 548.105 51.0005C548.574 50.7668 550.12 50.2116 553.412 49.6649C559.797 48.6043 569.964 48 584.286 48V28C569.707 28 558.199 28.5957 550.135 29.9351C546.202 30.5884 542.329 31.5332 539.185 33.0995C536.442 34.4666 530.936 38.0777 530.936 45.2H550.936ZM584.286 48C600.892 48 610.148 49.7048 614.107 51.7158L623.164 33.8842C614.523 29.4952 600.879 28 584.286 28V48ZM614.053 51.688C618.956 54.2166 620.804 56.739 621.506 58.7282L640.365 52.0718C637.468 43.861 631.115 37.9834 623.218 33.912L614.053 51.688ZM621.449 58.5623C622.033 60.3136 622.436 62.7035 622.436 65.9H642.436C642.436 61.0965 641.839 56.4864 640.422 52.2377L621.449 58.5623ZM622.436 65.9C622.436 72.8552 621.176 76.2959 620.164 77.7579L636.607 89.1421C640.995 82.8041 642.436 74.5448 642.436 65.9H622.436ZM620.065 77.903C619.196 79.2063 618.537 79.8394 618.188 80.1091C617.887 80.3413 617.92 80.2297 618.243 80.1776L621.428 99.9224C628.387 98.8 633.325 94.0693 636.706 88.997L620.065 77.903ZM617.754 99.8311C620.342 100.382 622.302 101.553 623.958 103.475L639.113 90.4248C634.569 85.1473 628.729 81.7184 621.917 80.2689L617.754 99.8311ZM623.958 103.475C624.649 104.278 626.186 107.314 626.186 115.25H646.186C646.186 105.986 644.622 96.8217 639.113 90.4248L623.958 103.475ZM626.186 115.25C626.186 123.146 623.876 127.212 620.852 129.591L633.219 145.309C642.396 138.088 646.186 127.354 646.186 115.25H626.186ZM620.825 129.613C617.686 132.1 611.798 134.435 601.731 135.451L603.74 155.349C615.473 154.165 625.785 151.2 633.246 145.287L620.825 129.613ZM601.869 135.438C597.639 135.805 592.493 136 586.386 136V156C592.879 156 598.632 155.795 603.602 155.362L601.869 135.438ZM586.536 90.6C591.525 90.6 596.722 88.785 600.273 84.05C603.419 79.856 604.186 74.7616 604.186 70.4H584.186C584.186 71.5075 584.078 72.1475 584.006 72.4371C583.936 72.7163 583.946 72.4866 584.273 72.05C584.643 71.557 585.193 71.1033 585.821 70.8244C586.391 70.5712 586.71 70.6 586.536 70.6V90.6ZM604.186 70.4C604.186 65.9484 603.323 60.5565 599.611 56.3149L584.56 69.485C584.084 68.9414 583.996 68.5465 584.031 68.6713C584.073 68.821 584.186 69.347 584.186 70.4H604.186ZM600.029 56.8255C597.377 53.3576 593.193 50.35 587.586 50.35V70.35C586.682 70.35 585.787 70.102 585.055 69.6877C584.389 69.3098 584.118 68.9435 584.142 68.9745L600.029 56.8255ZM587.586 50.35H582.786V70.35H587.586V50.35ZM572.786 60.35V80.6H592.786V60.35H572.786ZM582.786 90.6H586.536V70.6H582.786V90.6ZM582.786 133.65H586.536V113.65H582.786V133.65ZM586.536 133.65C591.525 133.65 596.722 131.835 600.273 127.1C603.419 122.906 604.186 117.812 604.186 113.45H584.186C584.186 114.558 584.078 115.198 584.006 115.487C583.936 115.766 583.946 115.537 584.273 115.1C584.643 114.607 585.193 114.153 585.821 113.874C586.391 113.621 586.71 113.65 586.536 113.65V133.65ZM604.186 113.45C604.186 108.998 603.323 103.606 599.611 99.365L584.56 112.535C584.084 111.991 583.996 111.596 584.031 111.721C584.073 111.871 584.186 112.397 584.186 113.45H604.186ZM600.029 99.8755C597.377 96.4076 593.193 93.4 587.586 93.4V113.4C586.682 113.4 585.787 113.152 585.055 112.738C584.389 112.36 584.118 111.994 584.142 112.024L600.029 99.8755ZM587.586 93.4H582.786V113.4H587.586V93.4ZM572.786 103.4V123.65H592.786V103.4H572.786ZM652.547 138.65L644.58 144.694L644.613 144.737L644.646 144.78L652.547 138.65ZM654.797 61.85L657.715 71.4148L657.789 71.3923L657.863 71.3686L654.797 61.85ZM687.347 120.5L677.491 122.19L677.495 122.214L677.499 122.238L687.347 120.5ZM705.947 61.7L708.735 71.3035L708.735 71.3035L705.947 61.7ZM727.697 145.1L728.645 155.055L728.645 155.055L727.697 145.1ZM699.797 143.6L709.778 142.976L709.75 142.526L709.681 142.079L699.797 143.6ZM698.297 133.85L708.181 132.329L706.876 123.85H698.297V133.85ZM697.097 133.85V123.85H689.29L687.396 131.425L697.097 133.85ZM691.697 142.7L685.213 135.088L685.201 135.097L685.189 135.107L691.697 142.7ZM685.397 146L688.56 155.487L688.66 155.453L688.761 155.417L685.397 146ZM676.097 137.35C666.325 137.35 662.227 134.812 660.448 132.52L644.646 144.78C651.868 154.088 663.469 157.35 676.097 157.35V137.35ZM660.514 132.606C658.214 129.574 655.947 122.365 655.947 108.35H635.947C635.947 123.135 638.081 136.126 644.58 144.694L660.514 132.606ZM655.947 108.35V67.55H635.947V108.35H655.947ZM655.947 67.55C655.947 69.6763 655.122 71.2476 654.476 72.1014C653.901 72.861 653.43 73.1249 653.575 73.0321C653.676 72.9669 654.036 72.7568 654.783 72.4449C655.509 72.141 656.474 71.7935 657.715 71.4148L651.879 52.2852C648.606 53.2837 645.367 54.5289 642.745 56.2178C640.555 57.6282 635.947 61.2121 635.947 67.55H655.947ZM657.863 71.3686C662.725 69.8028 667.887 69 673.397 69V49C665.908 49 658.67 50.0972 651.732 52.3314L657.863 71.3686ZM673.397 69C675.169 69 676.48 69.1166 677.408 69.2765C678.36 69.4407 678.669 69.6102 678.591 69.5697C678.466 69.5053 677.816 69.129 677.226 68.2139C676.606 67.2524 676.447 66.3068 676.447 65.75H696.447C696.447 62.9432 695.744 60.0288 694.037 57.3799C692.36 54.7772 690.078 52.9947 687.779 51.8053C683.472 49.5776 678.284 49 673.397 49V69ZM676.447 65.75V103.85H696.447V65.75H676.447ZM676.447 103.85C676.447 111.528 676.738 117.798 677.491 122.19L697.203 118.81C696.756 116.202 696.447 111.372 696.447 103.85H676.447ZM677.499 122.238C677.965 124.873 678.979 128.17 681.424 130.941C684.195 134.081 687.969 135.6 691.847 135.6V115.6C692.446 115.6 693.287 115.711 694.212 116.114C695.151 116.524 695.893 117.111 696.421 117.709C697.366 118.78 697.33 119.527 697.195 118.762L677.499 122.238ZM691.847 135.6C694.613 135.6 698.552 135.052 701.896 132.23C705.566 129.134 706.647 124.929 706.647 121.55H686.647C686.647 120.871 686.929 118.691 688.999 116.945C690.743 115.473 692.281 115.6 691.847 115.6V135.6ZM706.647 121.55V67.55H686.647V121.55H706.647ZM706.647 67.55C706.647 69.6613 705.823 71.2268 705.169 72.0813C704.592 72.8351 704.127 73.0841 704.297 72.9771C704.423 72.8976 704.821 72.6741 705.618 72.3525C706.396 72.039 707.422 71.6849 708.735 71.3035L703.159 52.0965C699.735 53.0907 696.367 54.3377 693.648 56.0479C691.355 57.4901 686.647 61.1105 686.647 67.55H706.647ZM708.735 71.3035C713.92 69.7983 719.72 69 726.197 69V49C718.075 49 710.375 50.0017 703.159 52.0965L708.735 71.3035ZM726.197 69C727.605 69 728.591 69.0962 729.235 69.2107C729.901 69.3294 729.968 69.4271 729.698 69.2827C729.375 69.1105 728.619 68.6102 727.979 67.5841C727.319 66.5264 727.147 65.4946 727.147 64.85H747.147C747.147 62.2554 746.519 59.5173 744.947 56.9972C743.394 54.5086 741.269 52.7895 739.122 51.6423C735.126 49.5073 730.411 49 726.197 49V69ZM727.147 64.85V142.1H747.147V64.85H727.147ZM727.147 142.1C727.147 138.177 729.496 135.883 730.496 135.121C731.425 134.413 732.083 134.266 731.759 134.369C731.22 134.54 729.71 134.863 726.749 135.145L728.645 155.055C731.984 154.737 735.2 154.26 737.811 153.431C739.062 153.034 740.901 152.337 742.617 151.029C744.405 149.667 747.147 146.723 747.147 142.1H727.147ZM726.749 135.145C720.753 135.716 714.869 136 709.097 136V156C715.525 156 722.042 155.684 728.645 155.055L726.749 135.145ZM709.097 136C706.276 136 704.996 135.795 704.696 135.717C704.516 135.671 705.349 135.836 706.435 136.65C707.036 137.101 707.839 137.845 708.523 138.973C709.238 140.15 709.687 141.525 709.778 142.976L689.817 144.224C690.068 148.25 692.321 151.065 694.435 152.65C696.32 154.064 698.328 154.729 699.698 155.083C702.499 155.805 705.818 156 709.097 156V136ZM709.681 142.079L708.181 132.329L688.414 135.371L689.914 145.121L709.681 142.079ZM698.297 123.85H697.097V143.85H698.297V123.85ZM687.396 131.425C686.976 133.102 686.25 134.204 685.213 135.088L698.182 150.312C702.545 146.596 705.418 141.798 706.799 136.275L687.396 131.425ZM685.189 135.107C685.198 135.1 684.993 135.273 684.432 135.567C683.882 135.855 683.101 136.202 682.034 136.583L688.761 155.417C692.094 154.227 695.484 152.625 698.205 150.293L685.189 135.107ZM682.235 136.513C680.758 137.006 678.76 137.35 676.097 137.35V157.35C680.435 157.35 684.637 156.794 688.56 155.487L682.235 136.513ZM765.457 145.7L768.708 136.243L768.708 136.243L765.457 145.7ZM757.507 141.65L751.26 149.459L751.353 149.533L751.447 149.604L757.507 141.65ZM752.257 135.2L743.516 140.056L743.516 140.056L752.257 135.2ZM748.807 127.55L739.283 130.598L739.302 130.655L739.321 130.712L748.807 127.55ZM747.007 118.4L756.946 117.296L756.945 117.285L756.944 117.275L747.007 118.4ZM753.757 68.6L761.918 74.3802L761.936 74.3537L761.955 74.3271L753.757 68.6ZM794.557 64.1L801.99 57.4103L801.894 57.3034L801.795 57.1992L794.557 64.1ZM796.657 67.7L787.24 71.0634L789.61 77.7H796.657V67.7ZM797.857 67.7V77.7H809.747L807.71 65.9866L797.857 67.7ZM796.057 57.35H786.057V58.2131L786.205 59.0634L796.057 57.35ZM804.457 32.15L800.946 22.7867L800.946 22.7867L804.457 32.15ZM835.657 32.9L843.85 27.1654L843.791 27.082L843.731 26.9998L835.657 32.9ZM828.307 145.1L829.392 155.041L829.47 155.033L829.548 155.023L828.307 145.1ZM802.357 145.55L799.61 155.165L799.999 155.276L800.396 155.356L802.357 145.55ZM799.657 144.35L791.657 150.35L792.084 150.919L792.586 151.421L799.657 144.35ZM799.057 142.4L808.996 141.296L808.98 141.153L808.96 141.01L799.057 142.4ZM797.857 133.85L807.76 132.46L806.552 123.85H797.857V133.85ZM796.657 133.85V123.85H788.904L786.972 131.36L796.657 133.85ZM791.257 142.7L784.614 135.226L784.567 135.268L784.52 135.31L791.257 142.7ZM796.207 122.45L805.492 126.164L806.207 124.376V122.45H796.207ZM794.557 80.15L789.412 88.7249L789.901 89.018L790.419 89.2537L794.557 80.15ZM788.107 120.35L778.422 122.84L778.465 123.007L778.514 123.172L788.107 120.35ZM775.807 137.35C773.111 137.35 770.769 136.951 768.708 136.243L762.207 155.157C766.546 156.649 771.104 157.35 775.807 157.35V137.35ZM768.708 136.243C766.249 135.398 764.617 134.495 763.568 133.696L751.447 149.604C754.598 152.005 758.266 153.802 762.207 155.157L768.708 136.243ZM763.754 133.841C762.956 133.203 761.994 132.135 760.999 130.344L743.516 140.056C745.52 143.665 748.059 146.897 751.26 149.459L763.754 133.841ZM760.999 130.344C759.736 128.07 758.862 126.09 758.294 124.388L739.321 130.712C740.353 133.81 741.779 136.93 743.516 140.056L760.999 130.344ZM758.332 124.502C757.794 122.822 757.298 120.465 756.946 117.296L737.069 119.504C737.516 123.535 738.221 127.278 739.283 130.598L758.332 124.502ZM756.944 117.275C756.396 112.434 756.107 106.771 756.107 100.25H736.107C736.107 107.329 736.419 113.766 737.071 119.525L756.944 117.275ZM756.107 100.25C756.107 87.3175 758.524 79.1709 761.918 74.3802L745.597 62.8198C738.791 72.4291 736.107 85.3825 736.107 100.25H756.107ZM761.955 74.3271C765.186 69.7029 769.126 67.65 774.757 67.65V47.65C762.589 47.65 752.529 52.8971 745.56 62.8729L761.955 74.3271ZM774.757 67.65C782.558 67.65 785.91 69.5217 787.32 71.0007L801.795 57.1992C795.005 50.0783 785.157 47.65 774.757 47.65V67.65ZM787.124 70.7897C787.103 70.7656 787.103 70.7595 787.12 70.7887C787.138 70.8198 787.183 70.9044 787.24 71.0634L806.075 64.3366C805.183 61.8383 803.85 59.4762 801.99 57.4103L787.124 70.7897ZM796.657 77.7H797.857V57.7H796.657V77.7ZM807.71 65.9866L805.91 55.6366L786.205 59.0634L788.005 69.4134L807.71 65.9866ZM806.057 57.35V38.6H786.057V57.35H806.057ZM806.057 38.6C806.057 40.2861 805.494 41.5902 804.991 42.3718C804.538 43.0762 804.15 43.3442 804.248 43.269C804.323 43.2114 804.631 42.9943 805.297 42.6573C805.948 42.3281 806.824 41.9424 807.969 41.5133L800.946 22.7867C797.767 23.9787 794.609 25.4542 792.067 27.406C789.698 29.2253 786.057 32.8978 786.057 38.6H806.057ZM807.969 41.5133C812.352 39.8695 817.202 39 822.607 39V19C815.013 19 807.763 20.2305 800.946 22.7867L807.969 41.5133ZM822.607 39C825.469 39 827.199 39.2851 828.107 39.5563C829.025 39.8308 828.356 39.8571 827.584 38.8002L843.731 26.9998C841.059 23.3428 837.265 21.4192 833.833 20.3937C830.391 19.3648 826.546 19 822.607 19V39ZM827.465 38.6346C827.252 38.3301 826.707 37.3676 826.707 35.9H846.707C846.707 32.4324 845.463 29.4699 843.85 27.1654L827.465 38.6346ZM826.707 35.9V142.4H846.707V35.9H826.707ZM826.707 142.4C826.707 137.944 829.615 135.589 830.37 135.05C831.25 134.422 831.856 134.28 831.547 134.38C831.056 134.537 829.702 134.848 827.067 135.177L829.548 155.023C832.513 154.652 835.358 154.163 837.668 153.42C838.758 153.07 840.415 152.453 841.995 151.325C843.45 150.286 846.707 147.406 846.707 142.4H826.707ZM827.223 135.159C822.06 135.722 817.073 136 812.257 136V156C817.842 156 823.554 155.678 829.392 155.041L827.223 135.159ZM812.257 136C809.787 136 807.852 135.963 806.412 135.898C804.826 135.826 804.273 135.735 804.319 135.744L800.396 155.356C803.053 155.887 807.404 156 812.257 156V136ZM805.105 135.935C804.663 135.808 804.568 135.756 804.694 135.812C804.765 135.844 804.985 135.945 805.292 136.133C805.58 136.31 806.124 136.674 806.729 137.279L792.586 151.421C794.07 152.905 795.705 153.703 796.571 154.088C797.597 154.544 798.652 154.892 799.61 155.165L805.105 135.935ZM807.657 138.35C808.398 139.338 808.715 140.215 808.84 140.622C808.911 140.85 808.949 141.025 808.969 141.128C808.989 141.233 808.996 141.292 808.996 141.296L789.119 143.504C789.279 144.946 789.728 147.778 791.657 150.35L807.657 138.35ZM808.96 141.01L807.76 132.46L787.954 135.24L789.154 143.79L808.96 141.01ZM797.857 123.85H796.657V143.85H797.857V123.85ZM786.972 131.36C786.568 132.934 785.826 134.148 784.614 135.226L797.901 150.174C802.089 146.452 804.947 141.766 806.342 136.34L786.972 131.36ZM784.52 135.31C783.696 136.061 781.429 137.35 775.807 137.35V157.35C783.986 157.35 792.019 155.539 797.995 150.09L784.52 135.31ZM792.607 135.45C795.685 135.45 798.665 134.419 801.109 132.382C803.376 130.493 804.698 128.15 805.492 126.164L786.923 118.736C786.932 118.713 787.012 118.515 787.212 118.215C787.415 117.911 787.763 117.47 788.306 117.018C789.55 115.981 791.13 115.45 792.607 115.45V135.45ZM806.207 122.45V82.4H786.207V122.45H806.207ZM806.207 82.4C806.207 79.9425 805.488 77.3958 803.859 75.1739C802.311 73.0633 800.352 71.7991 798.695 71.0463L790.419 89.2537C789.863 89.0009 788.729 88.3617 787.731 87.0011C786.651 85.5292 786.207 83.8575 786.207 82.4H806.207ZM799.702 71.5751C797.816 70.4434 795.116 69.25 791.857 69.25V89.25C791.004 89.25 790.355 89.0903 789.97 88.9618C789.775 88.8969 789.633 88.8351 789.545 88.7936C789.457 88.752 789.413 88.7252 789.412 88.7249L799.702 71.5751ZM791.857 69.25C786.455 69.25 782.988 72.5923 781.256 75.24C779.64 77.7116 778.788 80.5553 778.262 82.9705C777.176 87.9521 776.757 94.6755 776.757 102.65H796.757C796.757 95.0245 797.189 90.0479 797.803 87.2295C798.127 85.7447 798.337 85.6634 797.996 86.185C797.54 86.8827 795.56 89.25 791.857 89.25V69.25ZM776.757 102.65C776.757 110.991 777.18 118.007 778.422 122.84L797.792 117.86C797.235 115.693 796.757 110.909 796.757 102.65H776.757ZM778.514 123.172C779.218 125.566 780.375 128.401 782.484 130.791C784.85 133.473 788.338 135.45 792.607 135.45V115.45C793.577 115.45 794.607 115.668 795.57 116.136C796.503 116.589 797.123 117.154 797.481 117.559C798.09 118.249 797.997 118.534 797.701 117.528L778.514 123.172ZM865.067 145.7L868.318 136.243L868.318 136.243L865.067 145.7ZM857.117 141.65L850.87 149.459L850.962 149.533L851.056 149.604L857.117 141.65ZM851.867 135.2L843.125 140.056L843.125 140.056L851.867 135.2ZM848.417 127.55L838.893 130.598L838.911 130.655L838.93 130.712L848.417 127.55ZM846.617 118.4L856.556 117.296L856.554 117.285L856.553 117.275L846.617 118.4ZM853.367 68.6L861.527 74.3802L861.546 74.3537L861.564 74.3271L853.367 68.6ZM894.167 64.1L901.6 57.4103L901.503 57.3034L901.404 57.1992L894.167 64.1ZM896.267 67.7L886.849 71.0634L889.22 77.7H896.267V67.7ZM897.467 67.7V77.7H909.356L907.319 65.9866L897.467 67.7ZM895.667 57.35H885.667V58.2131L885.815 59.0634L895.667 57.35ZM904.067 32.15L900.556 22.7867L900.556 22.7867L904.067 32.15ZM935.267 32.9L943.459 27.1654L943.401 27.082L943.341 26.9998L935.267 32.9ZM927.917 145.1L929.001 155.041L929.079 155.033L929.157 155.023L927.917 145.1ZM901.967 145.55L899.22 155.165L899.609 155.276L900.006 155.356L901.967 145.55ZM899.267 144.35L891.267 150.35L891.693 150.919L892.196 151.421L899.267 144.35ZM898.667 142.4L908.606 141.296L908.59 141.153L908.57 141.01L898.667 142.4ZM897.467 133.85L907.37 132.46L906.161 123.85H897.467V133.85ZM896.267 133.85V123.85H888.513L886.582 131.36L896.267 133.85ZM890.867 142.7L884.223 135.226L884.176 135.268L884.129 135.31L890.867 142.7ZM895.817 122.45L905.102 126.164L905.817 124.376V122.45H895.817ZM894.167 80.15L889.022 88.7249L889.51 89.018L890.029 89.2537L894.167 80.15ZM887.717 120.35L878.032 122.84L878.075 123.007L878.123 123.172L887.717 120.35ZM875.417 137.35C872.72 137.35 870.378 136.951 868.318 136.243L861.816 155.157C866.155 156.649 870.714 157.35 875.417 157.35V137.35ZM868.318 136.243C865.858 135.398 864.226 134.495 863.177 133.696L851.056 149.604C854.207 152.005 857.875 153.802 861.816 155.157L868.318 136.243ZM863.364 133.841C862.565 133.203 861.604 132.135 860.608 130.344L843.125 140.056C845.13 143.665 847.668 146.897 850.87 149.459L863.364 133.841ZM860.608 130.344C859.346 128.07 858.471 126.09 857.904 124.388L838.93 130.712C839.963 133.81 841.388 136.93 843.125 140.056L860.608 130.344ZM857.941 124.502C857.403 122.822 856.908 120.465 856.556 117.296L836.678 119.504C837.126 123.535 837.83 127.278 838.893 130.598L857.941 124.502ZM856.553 117.275C856.005 112.434 855.717 106.771 855.717 100.25H835.717C835.717 107.329 836.028 113.766 836.68 119.525L856.553 117.275ZM855.717 100.25C855.717 87.3175 858.134 79.1709 861.527 74.3802L845.207 62.8198C838.4 72.4291 835.717 85.3825 835.717 100.25H855.717ZM861.564 74.3271C864.795 69.7029 868.735 67.65 874.367 67.65V47.65C862.198 47.65 852.139 52.8971 845.169 62.8729L861.564 74.3271ZM874.367 67.65C882.167 67.65 885.519 69.5217 886.929 71.0007L901.404 57.1992C894.614 50.0783 884.766 47.65 874.367 47.65V67.65ZM886.734 70.7897C886.712 70.7656 886.712 70.7595 886.729 70.7887C886.747 70.8198 886.793 70.9044 886.849 71.0634L905.684 64.3366C904.792 61.8383 903.459 59.4762 901.6 57.4103L886.734 70.7897ZM896.267 77.7H897.467V57.7H896.267V77.7ZM907.319 65.9866L905.519 55.6366L885.815 59.0634L887.615 69.4134L907.319 65.9866ZM905.667 57.35V38.6H885.667V57.35H905.667ZM905.667 38.6C905.667 40.2861 905.104 41.5902 904.6 42.3718C904.147 43.0762 903.759 43.3442 903.857 43.269C903.932 43.2114 904.24 42.9943 904.906 42.6573C905.557 42.3281 906.434 41.9424 907.578 41.5133L900.556 22.7867C897.377 23.9787 894.218 25.4542 891.677 27.406C889.307 29.2253 885.667 32.8978 885.667 38.6H905.667ZM907.578 41.5133C911.962 39.8695 916.812 39 922.217 39V19C914.622 19 907.372 20.2305 900.556 22.7867L907.578 41.5133ZM922.217 39C925.079 39 926.809 39.2851 927.716 39.5563C928.635 39.8308 927.965 39.8571 927.193 38.8002L943.341 26.9998C940.668 23.3428 936.874 21.4192 933.443 20.3937C930 19.3648 926.155 19 922.217 19V39ZM927.074 38.6346C926.861 38.3301 926.317 37.3676 926.317 35.9H946.317C946.317 32.4324 945.072 29.4699 943.459 27.1654L927.074 38.6346ZM926.317 35.9V142.4H946.317V35.9H926.317ZM926.317 142.4C926.317 137.944 929.225 135.589 929.979 135.05C930.859 134.422 931.466 134.28 931.157 134.38C930.666 134.537 929.312 134.848 926.676 135.177L929.157 155.023C932.122 154.652 934.968 154.163 937.277 153.42C938.368 153.07 940.024 152.453 941.604 151.325C943.059 150.286 946.317 147.406 946.317 142.4H926.317ZM926.832 135.159C921.67 135.722 916.682 136 911.867 136V156C917.451 156 923.164 155.678 929.001 155.041L926.832 135.159ZM911.867 136C909.397 136 907.462 135.963 906.021 135.898C904.436 135.826 903.882 135.735 903.928 135.744L900.006 155.356C902.663 155.887 907.014 156 911.867 156V136ZM904.714 135.935C904.272 135.808 904.178 135.756 904.303 135.812C904.375 135.844 904.595 135.945 904.902 136.133C905.189 136.31 905.733 136.674 906.338 137.279L892.196 151.421C893.679 152.905 895.314 153.703 896.18 154.088C897.206 154.544 898.262 154.892 899.22 155.165L904.714 135.935ZM907.267 138.35C908.008 139.338 908.324 140.215 908.45 140.622C908.52 140.85 908.558 141.025 908.578 141.128C908.599 141.233 908.605 141.292 908.606 141.296L888.728 143.504C888.888 144.946 889.338 147.778 891.267 150.35L907.267 138.35ZM908.57 141.01L907.37 132.46L887.564 135.24L888.764 143.79L908.57 141.01ZM897.467 123.85H896.267V143.85H897.467V123.85ZM886.582 131.36C886.177 132.934 885.436 134.148 884.223 135.226L897.51 150.174C901.698 146.452 904.556 141.766 905.952 136.34L886.582 131.36ZM884.129 135.31C883.306 136.061 881.038 137.35 875.417 137.35V157.35C883.595 157.35 891.628 155.539 897.604 150.09L884.129 135.31ZM892.217 135.45C895.294 135.45 898.274 134.419 900.719 132.382C902.986 130.493 904.307 128.15 905.102 126.164L886.532 118.736C886.541 118.713 886.622 118.515 886.821 118.215C887.025 117.911 887.373 117.47 887.915 117.018C889.159 115.981 890.739 115.45 892.217 115.45V135.45ZM905.817 122.45V82.4H885.817V122.45H905.817ZM905.817 82.4C905.817 79.9425 905.098 77.3958 903.468 75.1739C901.921 73.0633 899.961 71.7991 898.305 71.0463L890.029 89.2537C889.473 89.0009 888.338 88.3617 887.34 87.0011C886.261 85.5292 885.817 83.8575 885.817 82.4H905.817ZM899.312 71.5751C897.426 70.4434 894.726 69.25 891.467 69.25V89.25C890.614 89.25 889.965 89.0903 889.58 88.9618C889.385 88.8969 889.242 88.8351 889.155 88.7936C889.067 88.752 889.022 88.7252 889.022 88.7249L899.312 71.5751ZM891.467 69.25C886.064 69.25 882.597 72.5923 880.866 75.24C879.25 77.7116 878.398 80.5553 877.871 82.9705C876.785 87.9521 876.367 94.6755 876.367 102.65H896.367C896.367 95.0245 896.798 90.0479 897.412 87.2295C897.736 85.7447 897.946 85.6634 897.605 86.185C897.149 86.8827 895.169 89.25 891.467 89.25V69.25ZM876.367 102.65C876.367 110.991 876.789 118.007 878.032 122.84L897.402 117.86C896.845 115.693 896.367 110.909 896.367 102.65H876.367ZM878.123 123.172C878.827 125.566 879.984 128.401 882.093 130.791C884.46 133.473 887.947 135.45 892.217 135.45V115.45C893.187 115.45 894.217 115.668 895.18 116.136C896.112 116.589 896.733 117.154 897.09 117.559C897.7 118.249 897.606 118.534 897.31 117.528L878.123 123.172ZM997.376 127.4H1007.38V117.4H997.376V127.4ZM996.176 127.4V117.4H992.034L989.105 120.329L996.176 127.4ZM993.926 129.35L987.679 121.541L987.679 121.541L993.926 129.35ZM986.876 132.5L990.191 141.935L990.191 141.935L986.876 132.5ZM962.426 132.35L958.39 141.499L958.55 141.57L958.712 141.635L962.426 132.35ZM954.326 126.5L946.517 132.747L946.58 132.825L946.644 132.902L954.326 126.5ZM949.676 116.6L959.335 114.009L959.306 113.901L959.275 113.794L949.676 116.6ZM955.676 62.15L958.887 71.6207L958.958 71.5964L959.029 71.571L955.676 62.15ZM1004.43 62.15L1007.45 71.6812L1007.52 71.6595L1007.59 71.6368L1004.43 62.15ZM957.776 164.6L952.89 173.325L952.944 173.355L952.998 173.385L957.776 164.6ZM957.026 148.1L947.609 144.737L947.599 144.763L947.59 144.789L957.026 148.1ZM966.776 140.6L969.385 130.946L969.294 130.922L969.202 130.899L966.776 140.6ZM994.976 141.95L989.311 133.71L989.185 133.796L989.063 133.886L994.976 141.95ZM1007.38 136.25V127.4H987.376V136.25H1007.38ZM997.376 117.4H996.176V137.4H997.376V117.4ZM989.105 120.329C988.995 120.439 988.582 120.819 987.679 121.541L1000.17 137.159C1001.27 136.281 1002.36 135.361 1003.25 134.471L989.105 120.329ZM987.679 121.541C988.032 121.259 988.228 121.166 988.089 121.243C987.984 121.301 987.746 121.423 987.334 121.607C986.503 121.979 985.271 122.465 983.561 123.065L990.191 141.935C992.181 141.235 993.974 140.546 995.493 139.868C996.829 139.271 998.635 138.389 1000.17 137.159L987.679 121.541ZM983.561 123.065C981.093 123.933 978.088 124.45 974.426 124.45V144.45C979.964 144.45 985.26 143.667 990.191 141.935L983.561 123.065ZM974.426 124.45C970.957 124.45 968.254 123.911 966.14 123.065L958.712 141.635C963.598 143.589 968.895 144.45 974.426 144.45V124.45ZM966.463 123.201C964.208 122.206 962.851 121.109 962.008 120.098L946.644 132.902C949.801 136.691 953.844 139.494 958.39 141.499L966.463 123.201ZM962.135 120.253C961.229 119.121 960.188 117.188 959.335 114.009L940.018 119.191C941.365 124.212 943.423 128.879 946.517 132.747L962.135 120.253ZM959.275 113.794C957.769 108.644 956.826 100.552 956.826 89H936.826C936.826 101.248 937.783 111.556 940.078 119.406L959.275 113.794ZM956.826 89V68.3H936.826V89H956.826ZM956.826 68.3C956.826 70.2594 956.104 71.7205 955.53 72.5282C955.016 73.2506 954.597 73.5023 954.745 73.3994C954.858 73.3209 955.224 73.092 955.966 72.7525C956.69 72.421 957.65 72.0397 958.887 71.6207L952.466 52.6793C949.177 53.7943 945.939 55.1642 943.332 56.9756C941.064 58.5515 936.826 62.1982 936.826 68.3H956.826ZM959.029 71.571C963.812 69.8686 968.875 69 974.276 69V49C966.677 49 959.34 50.2314 952.323 52.729L959.029 71.571ZM974.276 69C976.048 69 977.359 69.1166 978.286 69.2765C979.239 69.4407 979.548 69.6102 979.469 69.5697C979.345 69.5053 978.695 69.129 978.105 68.2139C977.485 67.2524 977.326 66.3068 977.326 65.75H997.326C997.326 62.9432 996.623 60.0288 994.916 57.3799C993.239 54.7772 990.957 52.9947 988.658 51.8053C984.351 49.5776 979.163 49 974.276 49V69ZM977.326 65.75V84.65H997.326V65.75H977.326ZM977.326 84.65C977.326 94.7737 977.722 102.92 978.652 108.73C979.101 111.535 979.782 114.542 981.011 117.102C981.989 119.141 985.208 124.65 992.126 124.65V104.65C994.599 104.65 996.515 105.698 997.661 106.722C998.648 107.603 999.019 108.401 999.041 108.448C999.07 108.508 998.752 107.765 998.401 105.57C997.73 101.38 997.326 94.5263 997.326 84.65H977.326ZM992.126 124.65C995.764 124.65 999.79 123.161 1002.44 119.392C1004.64 116.267 1004.98 112.817 1004.98 110.6H984.976C984.976 111.083 984.836 109.658 986.086 107.883C986.793 106.877 987.813 105.965 989.092 105.359C990.32 104.778 991.419 104.65 992.126 104.65V124.65ZM1004.98 110.6V68.3H984.976V110.6H1004.98ZM1004.98 68.3C1004.98 70.439 1004.13 71.9862 1003.53 72.7803C1003 73.4879 1002.58 73.7071 1002.79 73.5689C1002.96 73.4596 1003.4 73.2071 1004.23 72.8508C1005.04 72.5027 1006.1 72.1091 1007.45 71.6812L1001.4 52.6188C997.936 53.7184 994.576 55.0544 991.884 56.8061C989.674 58.2442 984.976 61.8895 984.976 68.3H1004.98ZM1007.59 71.6368C1012.79 69.9042 1018.46 69 1024.68 69V49C1016.49 49 1008.67 50.1958 1001.26 52.6632L1007.59 71.6368ZM1024.68 69C1026.05 69 1027.01 69.0954 1027.62 69.2065C1028.26 69.3216 1028.3 69.4124 1028.01 69.2554C1027.67 69.0691 1026.92 68.5561 1026.28 67.5316C1025.64 66.4815 1025.48 65.4688 1025.48 64.85H1045.48C1045.48 62.2812 1044.86 59.5622 1043.32 57.0496C1041.79 54.5626 1039.68 52.8309 1037.54 51.6696C1033.55 49.5095 1028.85 49 1024.68 49V69ZM1025.48 64.85V135.8H1045.48V64.85H1025.48ZM1025.48 135.8C1025.48 144.451 1022.71 149.521 1018.21 152.843C1013.15 156.584 1004.34 159.25 990.176 159.25V179.25C1006.21 179.25 1020.06 176.341 1030.09 168.932C1040.69 161.104 1045.48 149.449 1045.48 135.8H1025.48ZM990.176 159.25C982.507 159.25 976.342 158.874 971.572 158.189C966.659 157.484 963.886 156.54 962.554 155.815L952.998 173.385C957.366 175.76 962.844 177.141 968.731 177.986C974.76 178.851 981.945 179.25 990.176 179.25V159.25ZM962.662 155.875C961.974 155.49 962.123 155.452 962.538 155.933C963.034 156.509 964.026 158.001 964.026 160.25H944.026C944.026 167.724 950.041 171.729 952.89 173.325L962.662 155.875ZM964.026 160.25C964.026 160.308 964.023 160.139 964.096 159.673C964.165 159.224 964.287 158.611 964.485 157.81C964.883 156.196 965.525 154.081 966.462 151.411L947.59 144.789C945.616 150.416 944.026 155.945 944.026 160.25H964.026ZM966.444 151.463C966.872 150.263 967.256 149.317 967.589 148.592C967.929 147.848 968.161 147.458 968.257 147.313C968.388 147.114 968.159 147.53 967.466 148.077C966.727 148.659 965.041 149.7 962.576 149.7V129.7C956.168 129.7 952.663 134.633 951.57 136.287C949.988 138.683 948.706 141.665 947.609 144.737L966.444 151.463ZM962.576 149.7C962.08 149.7 961.72 149.659 961.627 149.648C961.554 149.64 961.5 149.632 961.47 149.628C961.439 149.623 961.422 149.62 961.42 149.62C961.418 149.62 961.452 149.626 961.528 149.64C961.602 149.655 961.702 149.675 961.831 149.703C962.369 149.818 963.194 150.012 964.351 150.301L969.202 130.899C967.958 130.588 966.883 130.332 966.021 130.147C965.633 130.064 964.054 129.7 962.576 129.7V149.7ZM964.167 150.254C971.997 152.37 979.095 153.6 985.226 153.6V133.6C981.557 133.6 976.356 132.83 969.385 130.946L964.167 150.254ZM985.226 153.6C988.031 153.6 990.702 153.45 993.082 153.047C995.23 152.684 998.258 151.944 1000.89 150.014L989.063 133.886C989.717 133.406 990.202 133.239 990.242 133.226C990.306 133.203 990.168 133.256 989.745 133.328C988.876 133.475 987.422 133.6 985.226 133.6V153.6ZM1000.64 150.19C1005.93 146.554 1007.38 140.848 1007.38 136.25H987.376C987.376 136.66 987.309 136.414 987.56 135.819C987.854 135.12 988.436 134.311 989.311 133.71L1000.64 150.19Z" fill="white" mask="url(#path-1-outside-1_15_12)"/>
</g>
<defs>
<filter id="filter0_d_15_12" x="0" y="29" width="1039.48" height="148.25" filterUnits="userSpaceOnUse" color-interpolation-filters="sRGB">
<feFlood flood-opacity="0" result="BackgroundImageFix"/>
<feColorMatrix in="SourceAlpha" type="matrix" values="0 0 0 0 0 0 0 0 0 0 0 0 0 0 0 0 0 0 127 0" result="hardAlpha"/>
<feOffset dy="4"/>
<feGaussianBlur stdDeviation="2"/>
<feComposite in2="hardAlpha" operator="out"/>
<feColorMatrix type="matrix" values="0 0 0 0 0 0 0 0 0 0 0 0 0 0 0 0 0 0 0.25 0"/>
<feBlend mode="normal" in2="BackgroundImageFix" result="effect1_dropShadow_15_12"/>
<feBlend mode="normal" in="SourceGraphic" in2="effect1_dropShadow_15_12" result="shape"/>
</filter>
</defs>
</svg>
